<?xml version="1.0" encoding="utf-8"?>
<svg width="800px" height="800px" viewBox="0 0 64 64" xmlns="http://www.w3.org/2000/svg"><path d="m35.8 18.82a.72.72 0 0 0 -.9-.55c-.42.1-.82.85-.18 1.19a.73.73 0 0 0 1.08-.64zm-11.8-.89c.06-.22-.47-2.53-.5-2.78s-.35 0-.53.1a12.4 12.4 0 0 0 .24 2.75s.79.15.79-.07zm-3.35 3.35a25.26 25.26 0 0 1 2.35-1.35c.22-.09.75 1.85.75 1.85a4.77 4.77 0 0 0 .9-.32 8.1 8.1 0 0 0 -.75-2.62 4.31 4.31 0 0 0 -1.93.53 8.59 8.59 0 0 0 -2 1.5s.12.78.12.78a2.7 2.7 0 0 0 .58-.37zm15.19-7.19c.91.16 2.16.62 2.28.53s0-.41-.06-.56-.47-.44-1.66-.69a12.29 12.29 0 0 0 -2.37-.31c-.13 0 .19.78.28.87s.69 0 1.55.16zm4.78 5.09c.13 0-.06-.62-.15-.81a5.37 5.37 0 0 0 -1.85-.47s0 .69.16.85a8.71 8.71 0 0 0 1.86.43zm-1.56 1.19a8.17 8.17 0 0 0 1.84.44c.13 0-.06-.63-.15-.81a5.37 5.37 0 0 0 -1.85-.47s.02.68.18.84zm-18.42 23.28a9.35 9.35 0 0 1 .36 1.06c0 .16-1.32.72-1.19 1.16a7.82 7.82 0 0 0 4 3.81 3.85 3.85 0 0 0 3.9-.68 16.93 16.93 0 0 0 -.41-1.85l1.12-.47s.79 1.66.91 1.79 1.72-.22 3.44-2.44a6.66 6.66 0 0 0 1.09-5.31c-.09-.29-2.09 0-2.09 0l-.72-1.21s1-1.16 1.06-1.25-.11-1.76-2.75-2.8a5.1 5.1 0 0 0 -4.9.35c-.35.31.18 1.15.21 1.25s-1 .62-1.09.56a8.69 8.69 0 0 1 -.47-1.09c-.09-.16-1.65.25-3.34 2.72a4.52 4.52 0 0 0 -.66 4.5c.03.15 1.53-.1 1.53-.1zm0-3.62c.53-1 1.25-2.07 1.72-2.22 0 0 .66 1.06.85 1.09a10.33 10.33 0 0 0 2.62-1 5.94 5.94 0 0 0 -.19-1.65 3.56 3.56 0 0 1 3.07 0c1.75.78 1.87 1.56 1.87 1.56s-1 1.37-.91 1.5 1.5 2.41 1.5 2.41a12.37 12.37 0 0 1 1.82.12 5.39 5.39 0 0 1 -1 3.22 5.82 5.82 0 0 1 -2.13 2.09s-.78-1.5-1-1.5-2.59.75-2.59 1.1.28 2.06.28 2.06a3.31 3.31 0 0 1 -3.55-.88c-1.85-1.68-2.1-1.9-1.85-2s1.19-.75 1.19-1a15.85 15.85 0 0 0 -.62-2.12c-.07-.1-1.85 0-1.88-.1a8.67 8.67 0 0 1 .8-2.71zm8.69 2.34a2.66 2.66 0 0 0 -4-2.66c-.87.47-1.87 1.1-1.28 3.63s5.19 1.66 5.28-.97zm-3.45-1.66a1.55 1.55 0 0 1 2.32 1.55c-.05 1.54-2.72 2.05-3.07.57s.24-1.83.75-2.12zm24.78-7.12c-1.66-4.42-9-8.58-9-8.58l1.34-1.59s1.33-1.83-.5-6.79-5.5-6.33-5.5-6.33 0-7.3-.17-7.54-4.08.16-4.21.33.5 6 .5 6a8.66 8.66 0 0 0 -1.12-.17l-1.29-.12a13.39 13.39 0 0 0 -.46-2.75c-.25-.34-3 .41-3.13.66a10.75 10.75 0 0 0 .42 2.5s-6.71 2.3-9.33 7.55a9.91 9.91 0 0 0 .58 9.75c-6.63 4.62-7.71 15.87-6.33 20.54s6.12 13.41 17.54 14.21 17-5.59 20-10.88 2.33-12.38.66-16.79zm-5-3.22c.25.09 1.85 1.66 1.66 1.72s-4.87 1.19-8.28-1-4.41-4.78-4.25-5.88a7.58 7.58 0 0 1 1.41.25 7.18 7.18 0 0 0 4 4.13 11.55 11.55 0 0 0 5.47.78zm-11.87-10.66a1.35 1.35 0 0 1 .5-2.08 1.63 1.63 0 0 1 2.17 1.79c-.34 1.09-2.34.88-2.67.29zm7.92 7.29c2.15 1.15 2.59 2.18 2.59 2.18a6 6 0 0 1 -4.19-.9 5.37 5.37 0 0 1 -2.34-2.66 11.77 11.77 0 0 1 3.94 1.38zm-7.71-23.16c.12-.12 1.75-.38 1.75-.09s.18 6.09 0 6a13.59 13.59 0 0 1 -1.44-.41c-.04-.13-.42-5.44-.31-5.5zm-5.7 3.69c.16-.1 1.09-.5 1.16-.28s.34 1.59.18 1.59h-1.09s-.41-1.22-.25-1.31zm-7.51 8.64c2.67-3.91 6-5.5 10.87-5.41s7.63 2.7 8.63 5.54 1.5 6 1.25 6.21-.88-.17-2.13-.71a26.58 26.58 0 0 0 -2.7-1s1.95-1.71.29-3.5-4.63-.38-5 .87.83 2.59.83 2.59a14.93 14.93 0 0 0 -7.54 1 32.64 32.64 0 0 0 -5.38 2.66 9.5 9.5 0 0 1 .88-8.25zm-5.49 30.83a2.6 2.6 0 0 0 -.66.63 16.46 16.46 0 0 1 -.78-4.09c0-1.72 0-3.54.35-4.07a.53.53 0 0 0 .46.47 1.84 1.84 0 0 0 1-.25 10.22 10.22 0 0 0 -.43 4 19.79 19.79 0 0 0 .9 3.31 1.09 1.09 0 0 0 -.84 0zm6.12 8c-.15-.1 0-.5.16-.6s.44.28.25.47-.25.22-.41.13zm15.94 3.46a4 4 0 0 1 -.72.35s-2.64-3.35-2.81-3.35-.53.38-.5.47a35.23 35.23 0 0 1 2.53 3.07c-.19.06-1.59.12-1.59.12a19.41 19.41 0 0 0 -2-2c-.19 0-.66.53-.56.69s1.4 1.31 1.22 1.41a13.56 13.56 0 0 1 -1.85.06s-.19-.78-.47-.81a2.82 2.82 0 0 0 -.75.06s0 .72-.09.72a11.42 11.42 0 0 1 -5.09-1.07 9.36 9.36 0 0 1 -3.07-2.12s1.57-.75 1.19-1.59-1-1.19-1.56-1.07-1 1.72-1 1.72a12.23 12.23 0 0 1 -3-2.94 10.74 10.74 0 0 1 -1.69-2.81 1.31 1.31 0 0 0 .75-.4 2.16 2.16 0 0 0 .5-.72 9.5 9.5 0 0 0 5.56 3.75c4 1.18 7.31.87 10.19-1.16s5.66-7.06 4.62-11.5a10.41 10.41 0 0 0 -7.37-7.5 15.18 15.18 0 0 0 -9.5 1.84 18.32 18.32 0 0 0 -3.84 4.13 9.1 9.1 0 0 1 -1.47-.5c-.1-.09.78-5.28 2.9-7.38s7.11-6.5 14.63-5.03c.18 0 .25 5.53 5.69 7.6a22 22 0 0 0 10.15 1.18 9.18 9.18 0 0 1 .88 2.78c-.1.16-1.5.16-1.57.94s.47 1.53.85 1.5a6 6 0 0 0 1.15-.34l.16 1.22a8.36 8.36 0 0 0 -7.62 3.28 31.56 31.56 0 0 0 -4.63 9 13.05 13.05 0 0 0 -.28 1.47s-1-1.69-1.25-1.6-.75.19-.59.41l2 2.88a11.22 11.22 0 0 0 .21 1.46c.13.41.5 1.32.5 1.32s-3.09-4.66-3.31-4.57-.59.44-.56.6 3.22 4.31 3.06 4.43zm-11.5-25.15c4-.55 8.69.84 9.44 7a9.27 9.27 0 0 1 -6.59 10.28c-3 .88-8.6.06-10.54-4.31a9.47 9.47 0 0 1 7.69-12.97zm23.41 13.4a4.73 4.73 0 0 1 -.6 1.54s-1.68-1.94-1.9-1.88-.6.5-.47.69 2 1.62 1.91 1.84-.41 1.06-.5 1-1.57-1.62-1.79-1.59-.68.41-.56.59 2.13 1.63 1.88 2l-.38.53a13.26 13.26 0 0 0 -1.78-1.72 1.3 1.3 0 0 0 -.41.85c.07.15 1.57 1.53 1.47 1.65s-.22.47-.34.44-1.09-1.06-1.22-1-.47.75-.31.91.87.66.87.81a11.9 11.9 0 0 1 -1.53 1.63 9.11 9.11 0 0 1 1.06-7.1 14.12 14.12 0 0 1 3.33-3.78 5.36 5.36 0 0 1 1.72-.62 19.13 19.13 0 0 1 -.45 3.21zm.56-4.18a6.46 6.46 0 0 0 -5.19 3.25 14.69 14.69 0 0 0 -2.64 7.12c0 1 .5 3.06.31 3.19a12.92 12.92 0 0 1 -2.09.87 10.69 10.69 0 0 1 .62-8.68 14.22 14.22 0 0 1 6.66-6.63 15.33 15.33 0 0 1 2.37-.28zm-20.59 12.18c-.44.6-.94 1.72.47 2.22a1.34 1.34 0 0 0 1.78-1.75 1.38 1.38 0 0 0 -2.25-.47zm.76 1.46c-.55-.2-.36-.64-.18-.88a.55.55 0 0 1 .89.19.53.53 0 0 1 -.71.69zm-9-26.83c-.44.59-.94 1.72.47 2.22a1.34 1.34 0 0 0 1.78-1.75 1.38 1.38 0 0 0 -2.25-.47zm9.4-.6c-.34.46-.73 1.33.36 1.72a1 1 0 0 0 1.38-1.36 1.07 1.07 0 0 0 -1.72-.36zm8.21 6.88a1 1 0 0 0 1.39-1.36 1.07 1.07 0 0 0 -1.75-.36c-.33.46-.71 1.33.38 1.72zm-2 14.22a1 1 0 0 0 1.39-1.36 1.07 1.07 0 0 0 -1.75-.36c-.33.46-.71 1.33.38 1.72zm2.11-12.31c-.44.59-.94 1.72.47 2.22a1.34 1.34 0 0 0 1.81-1.75 1.37 1.37 0 0 0 -2.26-.47zm1.46.76a.53.53 0 0 1 -.71.69c-.55-.19-.36-.64-.18-.88a.55.55 0 0 1 .91.19zm5 1c.27-.95-.52-1.79-1.29-1.45s-1.62 1-.93 2 1.95.4 2.22-.55zm-1.18-.7c.3-.14.62.2.51.57s-.6.67-.88.24.08-.7.37-.81zm2.77-2a1.07 1.07 0 0 0 .33-1.91c-.62-.32-1.78-.66-2.19.56s.91 1.76 1.82 1.39zm-1.08-1.17c.16-.48.62-.35.87-.22s.23.6-.13.76-.94-.02-.78-.5zm-18.4-17.83a3.38 3.38 0 0 0 5-3c-.17-1.75-2.18-3-4.21-2.54s-3.79 3.95-.79 5.54zm1.14-4.53a2.2 2.2 0 0 1 2.77 1.67 2.22 2.22 0 0 1 -3.31 2c-1.98-1.07-.74-3.37.54-3.67z" fill="#1d1d1b"/></svg>