<?xml version="1.0" standalone="no"?>
<!DOCTYPE svg PUBLIC "-//W3C//DTD SVG 20010904//EN"
 "http://www.w3.org/TR/2001/REC-SVG-20010904/DTD/svg10.dtd">
<svg version="1.0" xmlns="http://www.w3.org/2000/svg"
 width="138.000000pt" height="138.000000pt" viewBox="0 0 138.000000 138.000000"
 preserveAspectRatio="xMidYMid meet">
<metadata>
Created by potrace 1.14, written by Peter Selinger 2001-2017
</metadata>
<g transform="translate(0.000000,138.000000) scale(0.100000,-0.100000)"
fill="#000000" stroke="none">
<path d="M0 690 l0 -690 690 0 690 0 0 690 0 690 -690 0 -690 0 0 -690z m884
596 c145 -71 242 -213 260 -380 2 -17 12 -34 27 -43 13 -8 16 -12 7 -9 -11 3
-18 0 -18 -7 0 -7 10 -13 21 -14 12 -1 24 -5 28 -8 3 -4 8 -49 9 -101 3 -75 1
-95 -11 -99 -11 -5 -14 -40 -16 -188 l-1 -182 -28 -26 c-16 -14 -78 -46 -138
-72 -132 -55 -164 -64 -164 -46 0 7 -3 9 -7 5 -5 -4 -8 -13 -8 -19 0 -7 -11
-14 -24 -15 -26 -4 -74 45 -63 63 3 5 5 22 3 37 -2 23 1 27 16 22 17 -5 17 -5
0 9 -18 15 -18 30 -11 267 l7 252 33 14 c37 15 70 18 77 7 2 -5 3 -3 1 3 -3
13 71 24 169 24 59 0 67 2 67 19 0 14 -10 21 -37 26 -124 23 -486 32 -663 15
-155 -14 -170 -18 -170 -41 0 -16 7 -19 50 -19 33 0 50 -4 50 -12 0 -10 2 -10
8 -1 8 13 152 1 208 -18 l31 -10 6 -92 c4 -51 10 -189 13 -307 l6 -215 -25
-23 c-28 -26 -71 -23 -60 4 3 7 1 14 -5 14 -6 0 -12 -5 -14 -11 -7 -21 -270
88 -290 121 -7 11 -18 20 -25 20 -10 0 -13 33 -14 133 0 72 -4 153 -8 179 -5
30 -4 51 3 58 7 7 5 10 -7 10 -15 0 -17 13 -17 105 l0 105 33 21 c30 20 34 29
44 91 6 37 23 93 38 123 50 103 216 243 252 213 10 -8 13 -6 13 6 0 9 11 18
28 22 15 3 32 8 37 10 6 2 54 2 107 0 89 -3 105 -6 172 -40z"/>
<path d="M609 1227 l-74 -43 -3 -93 c-2 -80 0 -95 15 -106 17 -13 18 -8 23 78
l5 91 55 32 55 32 45 -26 c72 -41 70 -37 70 -133 0 -87 1 -89 20 -77 11 7 20
20 20 28 0 9 6 22 13 29 10 11 10 14 0 18 -9 3 -13 25 -13 63 0 55 -2 60 -30
77 -16 9 -30 21 -30 25 0 4 -3 7 -7 6 -5 -1 -26 8 -49 19 l-41 22 -74 -42z"/>
<path d="M638 1139 c-15 -8 -18 -25 -18 -103 l0 -94 42 -20 41 -21 23 22 c21
20 24 31 24 114 0 82 -2 93 -20 103 -17 9 -20 8 -20 -8 0 -10 -5 -23 -12 -30
-9 -9 -9 -12 0 -12 9 0 12 -18 10 -62 -3 -55 -5 -63 -23 -63 -18 0 -20 8 -25
92 -5 84 -7 91 -22 82z"/>
<path d="M450 1030 c0 -5 5 -10 10 -10 6 0 10 5 10 10 0 6 -4 10 -10 10 -5 0
-10 -4 -10 -10z"/>
<path d="M450 900 c0 -5 5 -10 10 -10 6 0 10 5 10 10 0 6 -4 10 -10 10 -5 0
-10 -4 -10 -10z"/>
<path d="M255 860 c-3 -5 -1 -10 4 -10 6 0 11 5 11 10 0 6 -2 10 -4 10 -3 0
-8 -4 -11 -10z"/>
<path d="M190 820 c0 -5 5 -10 11 -10 5 0 7 5 4 10 -3 6 -8 10 -11 10 -2 0 -4
-4 -4 -10z"/>
<path d="M1050 734 c0 -8 5 -12 10 -9 6 3 10 10 10 16 0 5 -4 9 -10 9 -5 0
-10 -7 -10 -16z"/>
<path d="M170 720 c0 -5 5 -10 10 -10 6 0 10 5 10 10 0 6 -4 10 -10 10 -5 0
-10 -4 -10 -10z"/>
<path d="M270 711 c0 -5 -8 -12 -17 -14 -17 -4 -17 -5 0 -6 9 0 17 -5 17 -11
0 -5 -8 -6 -17 -3 -12 5 -9 -7 14 -48 17 -30 42 -74 55 -98 17 -33 31 -47 54
-53 56 -14 106 -93 150 -238 12 -41 23 -68 23 -59 2 31 -30 194 -50 262 -11
37 -17 73 -13 80 4 6 4 9 -1 5 -4 -4 -21 10 -36 32 -31 43 -85 83 -137 101
-26 9 -32 16 -29 30 3 11 1 22 -4 25 -5 3 -9 1 -9 -5z"/>
<path d="M470 704 c0 -8 5 -12 10 -9 6 3 10 10 10 16 0 5 -4 9 -10 9 -5 0 -10
-7 -10 -16z"/>
<path d="M1052 660 c-23 -11 -66 -43 -95 -72 -45 -45 -56 -64 -75 -128 -51
-173 -65 -301 -32 -280 12 8 12 12 2 18 -10 7 -11 19 -2 56 19 85 73 169 147
227 40 32 121 152 122 182 1 22 -14 21 -67 -3z"/>
<path d="M446 655 c4 -8 10 -12 15 -9 14 8 10 24 -6 24 -9 0 -12 -6 -9 -15z"/>
<path d="M790 590 c0 -5 5 -10 10 -10 6 0 10 5 10 10 0 6 -4 10 -10 10 -5 0
-10 -4 -10 -10z"/>
<path d="M260 555 c0 -8 5 -15 10 -15 6 0 10 7 10 15 0 8 -4 15 -10 15 -5 0
-10 -7 -10 -15z"/>
<path d="M825 490 c-3 -5 -1 -10 4 -10 6 0 11 5 11 10 0 6 -2 10 -4 10 -3 0
-8 -4 -11 -10z"/>
<path d="M1080 460 c0 -5 5 -10 11 -10 5 0 7 5 4 10 -3 6 -8 10 -11 10 -2 0
-4 -4 -4 -10z"/>
<path d="M230 448 c0 -23 15 -37 29 -28 12 7 12 11 -2 24 -19 19 -27 20 -27 4z"/>
<path d="M1025 430 c3 -5 8 -10 11 -10 2 0 4 5 4 10 0 6 -5 10 -11 10 -5 0 -7
-4 -4 -10z"/>
<path d="M1123 406 c4 -10 7 -22 7 -27 0 -5 5 -9 11 -9 15 0 7 43 -10 48 -10
3 -12 0 -8 -12z"/>
<path d="M1060 360 c0 -5 7 -10 15 -10 8 0 15 5 15 10 0 6 -7 10 -15 10 -8 0
-15 -4 -15 -10z"/>
<path d="M910 349 c0 -5 5 -7 10 -4 6 3 10 8 10 11 0 2 -4 4 -10 4 -5 0 -10
-5 -10 -11z"/>
<path d="M815 320 c-3 -5 -1 -10 4 -10 6 0 11 5 11 10 0 6 -2 10 -4 10 -3 0
-8 -4 -11 -10z"/>
<path d="M901 314 c0 -11 3 -14 6 -6 3 7 2 16 -1 19 -3 4 -6 -2 -5 -13z"/>
<path d="M396 235 c-3 -9 0 -15 9 -15 8 0 15 7 15 15 0 8 -4 15 -9 15 -5 0
-11 -7 -15 -15z"/>
<path d="M490 234 c0 -8 5 -12 10 -9 6 4 8 11 5 16 -9 14 -15 11 -15 -7z"/>
<path d="M1006 191 c-4 -7 -5 -15 -2 -18 9 -9 19 4 14 18 -4 11 -6 11 -12 0z"/>
<path d="M470 150 c6 -11 15 -20 20 -20 21 0 5 33 -18 38 -10 2 -10 -2 -2 -18z"/>
</g>
</svg>
