<?xml version="1.0" encoding="utf-8"?>
<!-- Generator: Adobe Illustrator 27.6.1, SVG Export Plug-In . SVG Version: 6.00 Build 0)  -->
<svg version="1.1" id="Laag_1" xmlns="http://www.w3.org/2000/svg" xmlns:xlink="http://www.w3.org/1999/xlink" x="0px" y="0px"
	 viewBox="0 0 384.9 100.41" style="enable-background:new 0 0 384.9 100.41;" xml:space="preserve">
<style type="text/css">
	.st0{fill:#242738;}
	.st1{fill:#01FE87;}
</style>
<path class="st0" d="M3.39,100.4c-0.92,0-1.72-0.36-2.39-1.07c-0.67-0.72-1-1.64-1-2.79V4.15C0,3.1,0.33,2.19,1,1.43
	c0.67-0.76,1.46-1.14,2.39-1.14h24.62c0.92,0,1.72,0.38,2.39,1.14c0.67,0.76,1,1.67,1,2.72v30.04h20.35V4.15
	c0-1.05,0.33-1.95,1-2.72c0.67-0.76,1.46-1.14,2.39-1.14h24.62c0.92,0,1.72,0.38,2.39,1.14c0.67,0.76,1,1.67,1,2.72v92.4
	c0,1.05-0.34,1.96-1,2.72c-0.67,0.76-1.47,1.14-2.39,1.14H55.13c-0.92,0-1.72-0.38-2.39-1.14c-0.67-0.76-1-1.67-1-2.72V65.65H31.4
	v30.89c0,1.05-0.34,1.96-1,2.72c-0.67,0.76-1.47,1.14-2.39,1.14H3.39z"/>
<path class="st0" d="M122.32,100.4c-0.92,0-1.72-0.38-2.39-1.14c-0.67-0.76-1-1.67-1-2.72V68.37L90.68,4.72
	c-0.08-0.19-0.15-0.4-0.19-0.64c-0.04-0.24-0.06-0.45-0.06-0.64c0-0.86,0.27-1.6,0.82-2.22c0.54-0.62,1.19-0.93,1.95-0.93h23.61
	c1.67,0,2.93,0.48,3.77,1.43c0.84,0.95,1.34,1.67,1.51,2.15l12.56,28.75l12.56-28.75c0.17-0.48,0.67-1.19,1.51-2.15
	c0.84-0.95,2.09-1.43,3.77-1.43h23.61c0.75,0,1.4,0.31,1.95,0.93c0.54,0.62,0.82,1.36,0.82,2.22c0,0.19-0.02,0.41-0.06,0.64
	c-0.04,0.24-0.11,0.45-0.19,0.64l-28.26,63.65v28.18c0,1.05-0.34,1.96-1,2.72c-0.67,0.76-1.47,1.14-2.39,1.14H122.32z"/>
<path class="st0" d="M189.51,100.41c-0.92,0-1.72-0.38-2.39-1.14c-0.67-0.76-1-1.67-1-2.72V4.15c0-1.05,0.33-1.95,1-2.72
	c0.67-0.76,1.46-1.14,2.39-1.14h38.5c7.62,0,14.25,1.26,19.91,3.79c5.65,2.53,10.05,6.39,13.19,11.59
	c3.14,5.2,4.71,11.75,4.71,19.67c0,7.92-1.57,14.37-4.71,19.38c-3.14,5.01-7.54,8.68-13.19,11.01c-5.65,2.34-12.29,3.5-19.91,3.5
	h-8.79v27.32c0,1.05-0.34,1.96-1,2.72c-0.67,0.76-1.47,1.14-2.39,1.14H189.51z M218.59,42.77h7.89c0.77,0,1.54-0.08,2.27-0.3
	c0.87-0.26,1.69-0.69,2.53-1.49c1.25-1.19,1.88-3.17,1.88-5.94c0-1.81-0.13-3.77-1.19-5.44c-0.75-1.17-1.67-1.87-2.87-2.3
	c-0.87-0.31-1.79-0.42-2.71-0.42h-7.79V42.77z"/>
<path class="st0" d="M313.22,66.85c0.47-0.05,0.93-0.11,1.39-0.17c0.14-0.02,0.29-0.03,0.43-0.05c0.52-0.08,1.03-0.17,1.55-0.27
	c0.09-0.02,0.17-0.03,0.26-0.05c0.54-0.11,1.08-0.23,1.62-0.37c0.05-0.01,0.11-0.02,0.16-0.04c0.53-0.13,1.05-0.28,1.57-0.44
	c0.06-0.02,0.12-0.03,0.18-0.05c0.5-0.15,1-0.32,1.5-0.5c0.07-0.03,0.15-0.05,0.23-0.08c0.47-0.17,0.93-0.35,1.39-0.54
	c0.1-0.04,0.2-0.08,0.3-0.12c0.43-0.18,0.84-0.37,1.26-0.56c0.13-0.06,0.27-0.12,0.4-0.18c0.38-0.18,0.75-0.38,1.13-0.57
	c0.16-0.08,0.33-0.16,0.49-0.25c0.33-0.18,0.66-0.37,0.99-0.56c0.2-0.11,0.4-0.22,0.59-0.34c0.28-0.17,0.56-0.36,0.84-0.54
	c0.23-0.15,0.46-0.29,0.69-0.44c0.24-0.16,0.47-0.34,0.71-0.5c0.26-0.18,0.51-0.36,0.76-0.55c0.2-0.15,0.4-0.31,0.6-0.47
	c0.28-0.22,0.55-0.43,0.82-0.65c0.17-0.14,0.33-0.29,0.5-0.44c0.29-0.25,0.58-0.5,0.86-0.76c0.15-0.14,0.29-0.29,0.44-0.43
	c0.27-0.26,0.54-0.51,0.79-0.77c0.02-0.02,0.04-0.05,0.07-0.07c0.01-0.01,0.02-0.02,0.03-0.03c0.11-0.11,0.21-0.23,0.32-0.35
	c0.26-0.27,0.51-0.54,0.76-0.82c0.12-0.13,0.22-0.27,0.34-0.4c0.24-0.28,0.48-0.56,0.71-0.85c0.11-0.14,0.21-0.28,0.32-0.41
	c0.22-0.29,0.45-0.58,0.66-0.87c0.11-0.15,0.21-0.3,0.31-0.45c0.2-0.29,0.41-0.58,0.6-0.87c0.1-0.16,0.2-0.32,0.3-0.48
	c0.18-0.29,0.37-0.58,0.54-0.87c0.1-0.17,0.19-0.34,0.28-0.51c0.16-0.29,0.33-0.58,0.49-0.88c0.09-0.17,0.17-0.35,0.26-0.52
	c0.15-0.3,0.3-0.6,0.44-0.9c0.08-0.17,0.15-0.35,0.23-0.52c0.14-0.31,0.27-0.62,0.4-0.93c0.07-0.17,0.13-0.35,0.2-0.52
	c0.12-0.32,0.24-0.63,0.36-0.95c0.06-0.17,0.11-0.34,0.17-0.52c0.11-0.33,0.22-0.65,0.31-0.98c0.05-0.17,0.09-0.34,0.14-0.51
	c0.09-0.34,0.19-0.67,0.27-1.01c0.04-0.17,0.07-0.34,0.11-0.51c0.08-0.34,0.15-0.69,0.22-1.03c0.03-0.17,0.06-0.34,0.09-0.51
	c0.06-0.35,0.12-0.69,0.17-1.04c0.02-0.18,0.04-0.36,0.06-0.54c0.04-0.34,0.08-0.68,0.11-1.03c0.02-0.19,0.03-0.39,0.04-0.58
	c0.02-0.33,0.05-0.66,0.06-0.99c0.01-0.22,0.01-0.44,0.01-0.66c0-0.26,0.02-0.51,0.01-0.77v-0.06c0-0.04,0-0.07,0-0.11
	c0-0.03,0-0.07,0-0.1c-0.01-0.6-0.04-1.19-0.08-1.77c-0.02-0.34-0.06-0.68-0.1-1.02c-0.04-0.42-0.1-0.84-0.16-1.26
	c-0.02-0.13-0.03-0.27-0.05-0.4l-0.01,0C342.05,12.46,326.97,0,309,0h-22.59c-1.96,0-3.77,1.02-4.75,2.67l-9.11,15.43
	c-0.72,1.22-0.74,2.69-0.05,3.92c0.71,1.28,2.08,2.08,3.57,2.08h33.46c4.88,0,9.03,3.2,10.01,7.49c0.05,0.23,0.1,0.47,0.13,0.7
	c0,0.01,0,0.03,0.01,0.04c0.04,0.28,0.06,0.55,0.08,0.83c0.01,0.16,0.01,0.31,0.01,0.47c0,0.17-0.02,0.34-0.03,0.52
	c-0.01,0.15-0.02,0.29-0.04,0.44c-0.01,0.11-0.04,0.21-0.05,0.32c-0.28,1.66-1.03,3.23-2.23,4.55c-2.02,2.22-5.01,3.49-8.22,3.49
	h-24.4h-1.53l-0.02-0.01l-0.01,0.01h0l-0.28,0.47l0,0l-5.93,10.07l-5.08,8.63c-0.96,1.63-0.64,3.65,0.76,4.91l35.31,31.89
	c1.02,0.92,2.34,1.42,3.73,1.42h28.95c1.73,0,3.22-1.03,3.8-2.63c0.56-1.53,0.12-3.22-1.12-4.3l-31.52-26.45
	c0.15-0.01,0.3-0.02,0.46-0.03C312.63,66.9,312.93,66.88,313.22,66.85z"/>
<g id="Path_188_00000021105142540770144350000014305438618768095381_">
	<path class="st1" d="M367.13,9.13v4.9h-4.9c-0.4,0-0.73,0.33-0.73,0.73v2.28c0,0.4,0.33,0.73,0.73,0.73h4.9v4.9
		c0,0.4,0.33,0.73,0.73,0.73h2.28c0.4,0,0.73-0.33,0.73-0.73v-4.9h4.89c0.4,0,0.73-0.33,0.73-0.73v-2.28c0-0.4-0.33-0.73-0.73-0.73
		h-4.89v-4.9c0-0.4-0.33-0.73-0.73-0.73h-2.28C367.46,8.4,367.13,8.73,367.13,9.13z"/>
</g>
<g>
	<path class="st1" d="M369,31.79c-8.76,0-15.9-7.13-15.9-15.9c0-8.77,7.13-15.9,15.9-15.9c8.77,0,15.9,7.13,15.9,15.9
		C384.9,24.66,377.77,31.79,369,31.79z M369,3.08c-7.07,0-12.81,5.75-12.81,12.81c0,7.06,5.75,12.81,12.81,12.81
		c7.07,0,12.81-5.75,12.81-12.81C381.82,8.83,376.07,3.08,369,3.08z"/>
</g>
</svg>
