<svg width="360" height="147" xmlns="http://www.w3.org/2000/svg">
    <style>
    .organizer { 
		font-size: 15px; 
		font-weight: thin; 
		font-family: "Open Sans";
		fill: black;
		}
	.unconference { 
		font-size: 40px; 
		font-family: "Open Sans"; 
		text-transform:uppercase;
		letter-spacing: 0.1em;
		fill: black;
		}
    </style>

	<g fill="none" fill-rule="evenodd">
		<!-- MUC logo -->
		<path fill="#F30" d="M30.564 66.687l-.16-.093-.162.093zM48.374 10.648L38.908 5.19 30.233.188 21.56 5.19 12.11 10.64 3.435 15.64v38.483l8.675 5.002V20.643l13.795-7.954v51.335l4.457 2.57 4.217-2.431V12.698l13.795 7.955v38.612l8.674-5.002V15.65zM102.387 10.642v38.612l-13.092 7.55-13.333-7.69V10.633l-8.675 5.003v38.482l8.675 5.002 8.293 4.783 1.285.74 3.755 2.166 3.755-2.165 1.044-.602 8.293-4.783 8.674-5.002V15.644zM160.62 53.773H137.431l-9.893-17.113 10.031-17.354h25.316l-5.008-8.664h-25.315l-5.009 8.664-5.53 9.566-3.995 6.912-.506.876.506.877 3.995 6.91 5.391 9.326 5.008 8.664H165.627z" />
		<!-- Mage -->
		<path d="M185.222 10.357h10.135l10.208 25.747c1.176 3.08 2.644 7.628 2.644 7.628h.147s1.396-4.547 2.571-7.628l10.208-25.747h10.135l4.186 52.08h-9.4l-2.203-29.12c-.22-3.449-.074-8.07-.074-8.07h-.147s-1.542 5.062-2.79 8.07l-8.446 20.171h-8.3l-8.371-20.172c-1.249-3.007-2.865-8.142-2.865-8.142h-.147s.147 4.694-.073 8.142l-2.203 29.121h-9.474l4.26-52.08zM256.205 56.056c4.92 0 8.446-5.282 8.446-9.83v-.88h-1.616c-4.773 0-12.485.66-12.485 5.868 0 2.494 1.836 4.842 5.655 4.842m7.124-17.091h1.249v-.514c0-4.915-3.085-6.602-7.198-6.602-5.361 0-10.282 3.594-10.282 3.594l-3.525-6.675s5.802-4.621 14.689-4.621c9.84 0 15.569 5.428 15.569 14.89v23.4h-8.592v-3.08c0-1.467.146-2.64.146-2.64h-.146c.073 0-2.865 6.601-11.384 6.601-6.684 0-12.705-4.181-12.705-11.664 0-11.882 16.083-12.69 22.179-12.69M307.263 42.852c0-8.509-4.186-10.783-9.254-10.783-5.655 0-8.813 4.108-8.813 10.416 0 6.529 3.378 11.37 9.4 11.37 4.48 0 8.667-2.567 8.667-11.003M296.467 69.92c5.728 0 10.575-2.421 10.575-9.096v-2.2c0-.881.147-1.981.147-1.981h-.147c-2.203 3.3-5.435 5.06-10.428 5.06-10.723 0-16.819-8.655-16.819-18.924 0-10.27 5.803-18.632 16.598-18.632 8.152 0 11.09 4.768 11.09 4.768h.22s-.073-.44-.073-1.027v-2.86h8.739v35.135c0 12.837-9.988 17.679-19.755 17.679-4.7 0-9.695-1.32-13.293-3.228l2.79-7.115s4.7 2.42 10.356 2.42M348.75 39.111c-.147-5.062-3.305-7.775-7.418-7.775-4.773 0-8.078 2.934-8.96 7.775h16.378zm-7.197-14.964c10.795 0 16.597 7.849 16.597 17.751 0 1.1-.22 3.595-.22 3.595h-25.851c.588 6.529 5.655 9.903 11.236 9.903 6.023 0 10.796-4.108 10.796-4.108l3.599 6.675s-5.728 5.355-15.056 5.355c-12.411 0-20.122-8.95-20.122-19.586 0-11.516 7.858-19.585 19.02-19.585z" fill="gray" />

		<text y="79%" x="50%" text-anchor="middle" class="unconference">Unconference</text>
        <text y="97%" x="50%" text-anchor="middle" class="organizer">The Dutch Edition</text>
		<path d="M253.5 139.5h107M.5 138.5h107" stroke="#001A18" stroke-linecap="square" />
	</g>
</svg>
