<svg xmlns="http://www.w3.org/2000/svg" viewBox="59.82 -192.38 363.27 141.73">  <style>    .organizer { 		font-size: 15px; 		font-weight: thin; 		font-family: "Open Sans";		fill: black;		}	.unconference { 		font-size: 40px; 		font-family: "Open Sans"; 		text-transform:uppercase;		letter-spacing: 0.1em;		fill: black;		}    </style>  <g fill="none" fill-rule="evenodd" transform="matrix(1, 0, 0, 1, 59.823486, -198.182632)">    <path d="M 33.848 5.798 L 27.36 5.798 C 15.86 8.369 8.478 11.095 8.478 23.37 L 8.357 60.475 C 15.565 61.822 20.495 67.815 23.46 76 L 27.077 76 C 27.801 68.384 27.29 56.283 25.421 48.902 C 20.682 45.641 17.552 40.193 15.631 33.101 L 30.219 38.322 L 31.05 44.513 L 33 44.513 C 36.126 32.35 36.65 19.368 33.848 5.798 Z" style="stroke: none; stroke-width: 1; stroke-dasharray: none; stroke-linecap: butt; stroke-linejoin: miter; stroke-miterlimit: 10; fill: rgb(80,100,110); fill-rule: nonzero; opacity: 1;" stroke-linecap="round"></path>    <path d="M 33.712 5.798 L 39.352 5.798 C 50.852 8.369 58.845 11.502 58.845 23.777 L 59.446 60.475 C 52.238 61.822 46.217 67.815 43.252 76 L 39.635 76 C 38.911 68.384 39.422 56.283 41.291 48.902 C 46.03 45.641 49.16 40.193 51.081 33.101 L 36.493 38.322 L 35.662 44.513 L 33.712 44.513 L 33.712 5.798 Z" style="stroke: none; stroke-width: 1; stroke-dasharray: none; stroke-linecap: butt; stroke-linejoin: miter; stroke-miterlimit: 10; fill: rgb(55,71,79); fill-rule: nonzero; opacity: 1;" stroke-linecap="round"></path>    <path fill="#F30" d="M 43.872 93.471 L 43.712 93.378 L 43.55 93.471 L 43.872 93.471 Z M 51.682 27.437 L 42.216 11.974 L 33.541 6.972 L 24.868 11.974 L 15.418 17.424 L 8.436 21.266 L 8.318 58.968 L 15.418 65.909 L 15.418 27.427 L 29.213 32.541 L 29.213 70.808 L 33.67 73.378 L 37.887 70.947 L 37.737 32.4 L 51.682 27.437 Z Z Z"></path>    <path d="M 43.785 93.513 L 43.625 93.42 L 43.463 93.513 L 43.785 93.513 Z M 51.595 17.474 L 42.129 12.016 L 33.454 7.014 L 33.717 7.149 L 33.609 19.394 L 33.583 73.42 L 37.8 70.989 L 37.8 19.524 L 51.595 27.479 L 51.595 66.091 L 60.027 61.089 L 58.796 21.829 L 51.595 17.474 Z Z Z" style="fill: rgb(166, 33, 0);"></path>    <path d="M 67 15 z z M 102.387 10.642 v 38.612 l -13.092 7.55 l -13.333 -7.69 V 10.633 l -8.675 5.003 v 38.482 l 8.675 5.002 l 8.293 4.783 l 1.285 0.74 l 3.755 2.166 l 3.755 -2.165 l 1.044 -0.602 l 8.293 -4.783 l 8.674 -5.002 V 15.644 z M 160.62 53.773 H 137.431 l -9.893 -17.113 l 10.031 -17.354 h 25.316 l -5.008 -8.664 h -25.315 l -5.009 8.664 l -5.53 9.566 l -3.995 6.912 l -0.506 0.876 l 0.506 0.877 l 3.995 6.91 l 5.391 9.326 l 5.008 8.664 H 165.627 z" stroke="#FF0000" stroke-width="0.1" fill="#000000"></path>    <path d="M185.222 10.357h10.135l10.208 25.747c1.176 3.08 2.644 7.628 2.644 7.628h.147s1.396-4.547 2.571-7.628l10.208-25.747h10.135l4.186 52.08h-9.4l-2.203-29.12c-.22-3.449-.074-8.07-.074-8.07h-.147s-1.542 5.062-2.79 8.07l-8.446 20.171h-8.3l-8.371-20.172c-1.249-3.007-2.865-8.142-2.865-8.142h-.147s.147 4.694-.073 8.142l-2.203 29.121h-9.474l4.26-52.08zM256.205 56.056c4.92 0 8.446-5.282 8.446-9.83v-.88h-1.616c-4.773 0-12.485.66-12.485 5.868 0 2.494 1.836 4.842 5.655 4.842m7.124-17.091h1.249v-.514c0-4.915-3.085-6.602-7.198-6.602-5.361 0-10.282 3.594-10.282 3.594l-3.525-6.675s5.802-4.621 14.689-4.621c9.84 0 15.569 5.428 15.569 14.89v23.4h-8.592v-3.08c0-1.467.146-2.64.146-2.64h-.146c.073 0-2.865 6.601-11.384 6.601-6.684 0-12.705-4.181-12.705-11.664 0-11.882 16.083-12.69 22.179-12.69M307.263 42.852c0-8.509-4.186-10.783-9.254-10.783-5.655 0-8.813 4.108-8.813 10.416 0 6.529 3.378 11.37 9.4 11.37 4.48 0 8.667-2.567 8.667-11.003M296.467 69.92c5.728 0 10.575-2.421 10.575-9.096v-2.2c0-.881.147-1.981.147-1.981h-.147c-2.203 3.3-5.435 5.06-10.428 5.06-10.723 0-16.819-8.655-16.819-18.924 0-10.27 5.803-18.632 16.598-18.632 8.152 0 11.09 4.768 11.09 4.768h.22s-.073-.44-.073-1.027v-2.86h8.739v35.135c0 12.837-9.988 17.679-19.755 17.679-4.7 0-9.695-1.32-13.293-3.228l2.79-7.115s4.7 2.42 10.356 2.42M348.75 39.111c-.147-5.062-3.305-7.775-7.418-7.775-4.773 0-8.078 2.934-8.96 7.775h16.378zm-7.197-14.964c10.795 0 16.597 7.849 16.597 17.751 0 1.1-.22 3.595-.22 3.595h-25.851c.588 6.529 5.655 9.903 11.236 9.903 6.023 0 10.796-4.108 10.796-4.108l3.599 6.675s-5.728 5.355-15.056 5.355c-12.411 0-20.122-8.95-20.122-19.586 0-11.516 7.858-19.585 19.02-19.585z" fill="gray"></path>    <text class="unconference" style="white-space: pre; font-size: 40px;" x="183" y="118.71" text-anchor="middle">Unconference</text>    <text y="143.53" x="178" text-anchor="middle" class="organizer" style="white-space: pre; font-size: 15px;">The Dutch Edition</text>    <path d="M253.5 139.5h107M.5 138.5h107" stroke="#001A18" stroke-linecap="square"></path>  </g></svg>