<svg xmlns="http://www.w3.org/2000/svg" xmlns:xlink="http://www.w3.org/1999/xlink" width="1629" height="282" viewBox="0 0 1629 282">
  <defs>
    <clipPath id="clip-Web_1920_9">
      <rect width="1629" height="282"/>
    </clipPath>
  </defs>
  <g id="Web_1920_9" data-name="Web 1920 – 9" clip-path="url(#clip-Web_1920_9)">
    <rect width="1629" height="282" fill="transparent"/>
    <g id="Group_16" data-name="Group 16" transform="translate(456.7 127.688)">
      <path id="Path_52" data-name="Path 52" d="M535.7,625.8v59h-24v-53c0-11.836-4.332-19-16-19-12.685,0-19,8.292-19,23v49h-25v-53c0-11.836-4.333-19-16-19-12.685,0-19,8.292-19,23v49h-24v-93h24v13c6.052-9.268,16.936-15.335,28-15,12.178-.666,23.228,6.776,28,18,6.408-11.078,18.2-18.221,31-18C523.488,589.818,535.7,603.314,535.7,625.8Z" transform="translate(-392.4 -624.488)" fill="#5c5c52"/>
      <path id="Path_53" data-name="Path 53" d="M518.829,591.746v93h-24v-12c-6.664,9.382-17.5,14.3-29,14-24.346,0-43-19.427-43-48,0-28.747,19.159-49,43-49a34.169,34.169,0,0,1,29,15v-13Zm-24,47a23.651,23.651,0,0,0-6-18,25.409,25.409,0,0,0-18-8c-10.479-.716-20.488,5.515-25,15s-2.167,20.322,5,28a25.344,25.344,0,0,0,28,6C488.6,657.9,494.823,649.25,494.829,638.746Z" transform="translate(-263.529 -624.434)" fill="#5c5c52"/>
      <path id="Path_54" data-name="Path 54" d="M540.681,591.769v92c0,27.562-17.933,46-46,46-22.492,0-43.425-11.648-47-36h25c2.7,10.464,11.024,14,21,14,14.714,0,23-7.275,23-23v-14c-6.766,9.363-17.452,15.264-29,15-24.352,0-43-20.1-43-48,0-28.067,19-48,43-48a34.6,34.6,0,0,1,29,15v-13Zm-24,46a25.022,25.022,0,0,0-7-18,22.764,22.764,0,0,0-17-7,25.609,25.609,0,0,0-24,15c-4.179,9.257-2.03,19.67,5,27a24.554,24.554,0,0,0,27,6C510.1,656.98,516.682,647.925,516.681,637.769Z" transform="translate(-172.381 -624.457)" fill="#5c5c52"/>
      <path id="Path_55" data-name="Path 55" d="M610.711,625.8v59h-24v-53c0-11.836-4.333-19-16-19-12.691,0-20,8.292-20,23v49h-24v-53c0-11.836-4.333-19-16-19-12.679,0-19,8.292-19,23v49h-25v-93h25v13c6.054-9.269,15.935-15.335,27-15a30.35,30.35,0,0,1,29,18c6.408-11.077,18.2-18.219,31-18C598.494,589.818,610.711,603.314,610.711,625.8Z" transform="translate(-79.411 -624.488)" fill="#9fa197"/>
      <path id="Path_56" data-name="Path 56" d="M594.874,638.759a47.733,47.733,0,0,1-48,48c-26.736-.017-48.986-21.264-49-48s21.264-48.955,48-49a47.848,47.848,0,0,1,49,49Zm-73,0c.8,13.069,11.917,22.536,25,22s24.268-10.909,24-24-11.906-24-25-24c-6.653-.051-12.442,3.153-17,8S521.414,632.123,521.874,638.759Z" transform="translate(49.426 -624.447)" fill="#9fa197"/>
      <path id="Path_57" data-name="Path 57" d="M615.688,583.139v130h-24v-12c-6.742,9.4-18.441,14.3-30,14-24.178,0-42-19.427-42-48,0-28.747,18.154-49,42-49a35.953,35.953,0,0,1,30,15v-50Zm-24,84c.472-6.61-2.478-13.156-7-18s-10.373-8.016-17-8c-10.48-.716-20.488,5.515-25,15s-3.168,20.322,4,28,19.227,9.85,29,6S591.682,677.643,591.688,667.139Z" transform="translate(140.612 -652.827)" fill="#9fa197"/>
      <path id="Path_58" data-name="Path 58" d="M627.413,590.113v93h-24v-13c-6.355,9.606-16.488,15.354-28,15-20.457,0-34-13.345-34-36v-59h25v53c0,12.173,4.49,19,17,19,13.371,0,20-7.781,20-23v-49Z" transform="translate(232.887 -622.802)" fill="#9fa197"/>
      <path id="Path_59" data-name="Path 59" d="M562.4,583.139h24v130h-24Z" transform="translate(317.901 -652.827)" fill="#9fa197"/>
      <path id="Path_60" data-name="Path 60" d="M665.907,644.769h-71a22.123,22.123,0,0,0,7,16,23.512,23.512,0,0,0,17,6c8.593.593,16.079-3.331,20-11h25c-6.935,21.981-25.036,31-45,31-26.809.14-48.86-21.191-49-48s21.191-48.86,48-49C648.706,589.792,668.279,614.156,665.907,644.769Zm-70-18h44a21.6,21.6,0,0,0-22-17A21.908,21.908,0,0,0,595.907,626.769Z" transform="translate(351.393 -624.458)" fill="#9fa197"/>
      <path id="Path_61" data-name="Path 61" d="M591.049,654.769h25c1.854,7.441,6.949,12,22,12,10.656,0,16-2.925,16-8,0-6.261-7.966-6.611-22-10-26.381-6.255-37-11.937-37-28,0-19.615,16.485-31,41-31,25.87,0,38.779,12.752,42,30h-25c-1.854-5.912-6.844-10-18-10-9.639,0-15,2.936-15,8,0,4.395,3.472,4.948,17,8,26.55,6.092,42,11.4,42,30,0,20.8-19,31-42,31C612.168,686.8,594.432,675.25,591.049,654.769Z" transform="translate(439.251 -624.458)" fill="#9fa197"/>
    </g>
    <rect id="Rectangle_43" data-name="Rectangle 43" width="80" height="199" rx="40" transform="translate(123.452 251.205) rotate(-150)" fill="#9fa197"/>
    <rect id="Rectangle_44" data-name="Rectangle 44" width="80" height="199" rx="40" transform="translate(244.452 251.205) rotate(-150)" fill="#5c5c52"/>
    <rect id="Rectangle_45" data-name="Rectangle 45" width="81.459" height="201.646" rx="40.729" transform="matrix(0.914, -0.407, 0.407, 0.914, 115.642, 74.472)" fill="#fff"/>
    <rect id="Rectangle_4" data-name="Rectangle 4" width="81" height="201" rx="40.5" transform="translate(114.08 78.5) rotate(-30)" fill="#f9e063"/>
    <rect id="Rectangle_47" data-name="Rectangle 47" width="87.459" height="217.646" rx="43.729" transform="matrix(0.914, -0.407, 0.407, 0.914, 236.642, 74.472)" fill="#fff"/>
    <rect id="Rectangle_42" data-name="Rectangle 42" width="81" height="201" rx="40.5" transform="translate(234.831 78.5) rotate(-30)" fill="#f9e063"/>
  </g>
</svg>
