<?xml version="1.0" encoding="utf-8"?>
<!-- Generator: Adobe Illustrator 25.2.1, SVG Export Plug-In . SVG Version: 6.00 Build 0)  -->
<svg version="1.1" id="Layer_1" xmlns="http://www.w3.org/2000/svg" xmlns:xlink="http://www.w3.org/1999/xlink" x="0px" y="0px"
	 viewBox="0 0 293.3 55.6" style="enable-background:new 0 0 293.3 55.6;" xml:space="preserve">
<style type="text/css">
	.st0{fill:#616466;}
	.st1{fill:#2373B9;}
	.st2{fill:none;stroke:#6D6E71;stroke-width:0.5;stroke-miterlimit:10;}
	.st3{fill:#F16126;}
</style>
<g>
	<path class="st0" d="M3,55.5H1.2l4-9.4h1.9l4.1,9.4H9.3L8.2,53H5.1l0.6-1.5h1.9l-1.5-3.5L3,55.5z"/>
	<path class="st0" d="M25.5,55.5v-9.4h4.3c1.9,0,2.9,0.8,2.9,2.5c0,1.1-0.7,2.1-2.2,2.8l3,4.1h-2.2l-2.9-4.1v-0.8
		c1.7-0.3,2.5-0.9,2.5-1.9c0-0.7-0.4-1-1.2-1h-2.4v7.9H25.5z"/>
	<path class="st0" d="M40.4,55.5h-1.8l4-9.4h1.9l4.1,9.4h-1.9L45.6,53h-3.1l0.6-1.5H45l-1.5-3.5L40.4,55.5z"/>
	<path class="st0" d="M62.8,46.1l-4.1,9.4h-1.9l-4-9.4h2.1l2.9,7.2l2.9-7.2H62.8z"/>
	<path class="st0" d="M75.4,46.1v1.5h-4.7V50h4.5v1.6h-4.5V54h4.8v1.5h-6.5v-9.4H75.4z"/>
	<path class="st0" d="M90.3,55.5v-9.4H94c3.1,0,4.7,1.5,4.7,4.5c0,3.3-1.6,5-4.7,5H90.3z M94,54c2,0,2.9-1.2,2.9-3.5
		c0-2-1-2.9-2.9-2.9H92V54H94z"/>
	<path class="st0" d="M107,46.1v9.4h-1.7v-9.4H107z"/>
	<path class="st0" d="M121.6,55.1c-0.8,0.3-1.7,0.5-2.9,0.5c-3.3,0-5-1.6-5-4.9c0-3.1,1.7-4.6,5.1-4.6c1,0,2,0.2,2.8,0.5v1.6
		c-0.8-0.4-1.7-0.5-2.6-0.5c-2.3,0-3.4,1-3.4,3.1c0,2.3,1.1,3.4,3.2,3.4c0.3,0,0.7-0.1,1.1-0.2v-2.7h1.7V55.1z"/>
	<path class="st0" d="M130.1,46.1v9.4h-1.7v-9.4H130.1z"/>
	<path class="st0" d="M143.4,46.1v1.5h-2.7v7.9h-1.7v-7.9h-2.7v-1.5H143.4z"/>
	<path class="st0" d="M149.4,55.5h-1.8l4-9.4h1.9l4.1,9.4h-1.9l-1.1-2.6h-3.1l0.6-1.5h1.9l-1.5-3.5L149.4,55.5z"/>
	<path class="st0" d="M165.6,46.1V54h3.7v1.5h-5.5v-9.4H165.6z"/>
	<path class="st0" d="M191.7,55.1c-0.8,0.3-1.7,0.5-2.8,0.5c-3.4,0-5.1-1.6-5.1-4.9c0-3.1,1.7-4.6,5.1-4.6c1,0,2,0.2,2.8,0.5v1.6
		c-0.8-0.4-1.7-0.5-2.6-0.5c-2.3,0-3.4,1-3.4,3.1c0,2.3,1.1,3.4,3.4,3.4c0.9,0,1.8-0.2,2.6-0.5V55.1z"/>
	<path class="st0" d="M198.2,50.8c0-3.2,1.6-4.8,4.7-4.8c3.1,0,4.7,1.6,4.7,4.8c0,3.2-1.6,4.8-4.7,4.8
		C199.9,55.6,198.3,54,198.2,50.8z M202.9,54.1c1.9,0,2.8-1.1,2.8-3.3c0-2.2-0.9-3.2-2.8-3.2c-1.9,0-2.9,1.1-2.9,3.2
		C200,53,201,54.1,202.9,54.1z"/>
	<path class="st0" d="M214.3,55.5v-9.4h1.8l3.2,7.2l3.1-7.2h1.7v9.4h-1.6V49l-2.6,6.6h-1.5l-2.6-6.6v6.6H214.3z"/>
	<path class="st0" d="M231.3,55.5v-9.4h4.2c1.9,0,2.9,0.9,2.9,2.7c0,1.9-1.3,3.1-3.9,3.5l-0.3-1.6c1.6-0.3,2.4-0.9,2.4-1.9
		c0-0.8-0.4-1.2-1.2-1.2h-2.4v7.9H231.3z"/>
	<path class="st0" d="M244.7,55.5h-1.8l4-9.4h1.9l4.1,9.4H251l-1.1-2.6h-3.1l0.6-1.5h1.9l-1.5-3.5L244.7,55.5z"/>
	<path class="st0" d="M259.1,55.5v-9.4h1.7l5,6.9v-6.9h1.7v9.4h-1.7l-5-7v7H259.1z"/>
	<path class="st0" d="M273.8,46.1h1.9l2.7,4.5l2.5-4.5h1.8l-3.5,6.1v3.3h-1.7v-3.3L273.8,46.1z"/>
</g>
<circle class="st1" cx="290.5" cy="32.4" r="2.9"/>
<line class="st2" x1="1.9" y1="40.3" x2="285.3" y2="40.3"/>
<g>
	<path class="st1" d="M17.4,10.2c1.6,1.2,2.8,2.7,3.5,4.6v-6h5.3v25.8h-5.3v-6c-0.7,1.9-1.8,3.4-3.5,4.6c-1.6,1.2-3.6,1.7-5.9,1.7
		c-2.2,0-4.2-0.5-5.9-1.6c-1.7-1.1-3.1-2.6-4.1-4.6c-1-2-1.5-4.3-1.5-7.1c0-2.7,0.5-5,1.5-7c1-2,2.3-3.5,4.1-4.6
		C7.3,9,9.3,8.5,11.5,8.5C13.8,8.5,15.8,9.1,17.4,10.2z M7.5,15.4C6.1,17,5.4,19,5.4,21.7s0.7,4.7,2.1,6.2c1.4,1.5,3.3,2.3,5.6,2.3
		c1.5,0,2.8-0.4,4-1.1c1.2-0.7,2.1-1.7,2.8-3c0.7-1.3,1-2.8,1-4.5c0-1.7-0.3-3.2-1-4.5c-0.7-1.3-1.6-2.3-2.8-3
		c-1.2-0.7-2.5-1.1-4-1.1C10.8,13.2,8.9,13.9,7.5,15.4z"/>
	<path class="st1" d="M53.8,11.3c1.8,1.9,2.7,4.7,2.7,8.3v15h-5.3V20.1c0-2.3-0.6-4.1-1.8-5.4c-1.2-1.3-2.8-1.9-4.8-1.9
		c-2.1,0-3.8,0.7-5,2c-1.3,1.4-1.9,3.3-1.9,6v13.7h-5.3V0h5.3v14.5c0.7-1.9,1.8-3.4,3.4-4.5c1.6-1.1,3.4-1.6,5.5-1.6
		C49.6,8.4,52,9.4,53.8,11.3z"/>
	<path class="st1" d="M86.1,22.8H66.5c0.1,2.6,0.8,4.6,2.2,5.9c1.4,1.3,3,1.9,5,1.9c1.8,0,3.2-0.5,4.5-1.4c1.2-0.9,2-2.1,2.2-3.6H86
		c-0.3,1.8-1,3.4-2.1,4.8c-1.1,1.4-2.5,2.5-4.2,3.3c-1.7,0.8-3.6,1.2-5.8,1.2c-2.5,0-4.6-0.5-6.5-1.6c-1.9-1.1-3.4-2.6-4.5-4.6
		c-1.1-2-1.6-4.3-1.6-7.1c0-2.7,0.5-5,1.6-7c1.1-2,2.6-3.5,4.5-4.6c1.9-1.1,4.1-1.6,6.5-1.6c2.5,0,4.7,0.5,6.5,1.6
		c1.9,1,3.3,2.5,4.3,4.3c1,1.8,1.5,3.9,1.5,6.1C86.3,21.3,86.2,22.1,86.1,22.8z M80.1,16.1c-0.6-1.1-1.5-2-2.6-2.5s-2.3-0.8-3.6-0.8
		c-2.1,0-3.8,0.6-5.2,1.9c-1.4,1.3-2.1,3.2-2.3,5.7h14.5C81,18.6,80.7,17.2,80.1,16.1z"/>
	<path class="st1" d="M107.4,10.2c1.6,1.2,2.8,2.7,3.5,4.6v-6h5.3v25.8h-5.3v-6c-0.7,1.9-1.8,3.4-3.5,4.6c-1.6,1.2-3.6,1.7-5.9,1.7
		c-2.2,0-4.2-0.5-5.9-1.6s-3.1-2.6-4.1-4.6c-1-2-1.5-4.3-1.5-7.1c0-2.7,0.5-5,1.5-7c1-2,2.3-3.5,4.1-4.6c1.7-1.1,3.7-1.6,5.9-1.6
		C103.8,8.5,105.8,9.1,107.4,10.2z M97.5,15.4c-1.4,1.5-2.1,3.6-2.1,6.2s0.7,4.7,2.1,6.2c1.4,1.5,3.3,2.3,5.6,2.3
		c1.5,0,2.8-0.4,4-1.1s2.1-1.7,2.8-3s1-2.8,1-4.5c0-1.7-0.3-3.2-1-4.5c-0.7-1.3-1.6-2.3-2.8-3s-2.5-1.1-4-1.1
		C100.8,13.2,98.9,13.9,97.5,15.4z"/>
	<path class="st1" d="M138.6,10.2c1.6,1.2,2.8,2.7,3.4,4.6V0h5.3v34.6H142v-6c-0.6,1.9-1.8,3.4-3.4,4.6c-1.6,1.2-3.6,1.7-5.9,1.7
		c-2.2,0-4.2-0.5-5.9-1.6s-3.1-2.6-4.1-4.6c-1-2-1.5-4.3-1.5-7.1c0-2.7,0.5-5,1.5-7c1-2,2.3-3.5,4.1-4.6c1.7-1.1,3.7-1.6,5.9-1.6
		C135,8.5,137,9.1,138.6,10.2z M128.7,15.4c-1.4,1.5-2.1,3.6-2.1,6.2s0.7,4.7,2.1,6.2c1.4,1.5,3.3,2.3,5.6,2.3c1.5,0,2.8-0.4,4-1.1
		s2.1-1.7,2.8-3s1-2.8,1-4.5c0-1.7-0.3-3.2-1-4.5c-0.7-1.3-1.6-2.3-2.8-3s-2.5-1.1-4-1.1C132,13.2,130.1,13.9,128.7,15.4z"/>
	<path class="st3" d="M189.3,8.8l-7.1,25.8h-5.8l-6.3-19.9l-6.4,19.9H158l-7.1-25.8h5.3l4.8,20.8l6.4-20.8h5.5l6.5,20.8l4.8-20.8
		H189.3z"/>
	<path class="st3" d="M211.2,10.1c2,1.1,3.5,2.6,4.6,4.6s1.7,4.3,1.7,7c0,2.7-0.6,5.1-1.7,7.1c-1.1,2-2.6,3.5-4.6,4.6
		c-2,1.1-4.2,1.6-6.6,1.6s-4.7-0.5-6.6-1.6c-2-1.1-3.5-2.6-4.6-4.6s-1.7-4.4-1.7-7c0-2.7,0.6-5,1.7-7s2.7-3.5,4.6-4.6
		c2-1.1,4.2-1.6,6.6-1.6S209.2,9,211.2,10.1z M200.8,14.1c-1.1,0.6-2.1,1.6-2.7,2.9c-0.7,1.3-1,2.9-1,4.7c0,1.9,0.3,3.5,1,4.8
		c0.7,1.3,1.6,2.2,2.7,2.9c1.1,0.6,2.4,0.9,3.7,0.9s2.6-0.3,3.7-0.9c1.1-0.6,2.1-1.6,2.7-2.9c0.7-1.3,1-2.9,1-4.8
		c0-1.9-0.3-3.5-1-4.7c-0.7-1.3-1.6-2.3-2.7-2.9c-1.1-0.6-2.4-0.9-3.7-0.9S202,13.4,200.8,14.1z"/>
	<path class="st3" d="M231.5,9.9c1.6-1,3.4-1.5,5.5-1.5v5.8h-1.6c-2.3,0-4.2,0.6-5.6,1.7s-2.1,3-2.1,5.6v13h-5.3V8.8h5.3v5
		C228.7,12.2,229.9,10.9,231.5,9.9z"/>
	<path class="st3" d="M255.4,34.6l-9.1-11.5v11.5H241V0h5.3v19.8l9-11h6.3l-11.1,12.8l11.4,12.9H255.4z"/>
	<path class="st3" d="M280.9,10.8c1.8,1.5,2.9,3.6,3.3,6.2h-5c-0.2-1.4-0.8-2.5-1.8-3.4s-2.3-1.3-3.9-1.3c-1.3,0-2.3,0.3-3.1,1
		c-0.7,0.6-1.1,1.5-1.1,2.6c0,0.8,0.3,1.5,0.8,2c0.5,0.5,1.2,0.9,2,1.2s1.9,0.6,3.3,0.9c1.9,0.4,3.5,0.9,4.6,1.4
		c1.2,0.5,2.2,1.2,3,2.2c0.8,1,1.3,2.4,1.3,4.1c0,2.2-0.8,3.9-2.4,5.2c-1.6,1.3-3.8,2-6.5,2c-3.2,0-5.7-0.7-7.7-2.2
		c-2-1.5-3.1-3.6-3.5-6.3h5.1c0.2,1.4,0.8,2.5,1.8,3.4c1.1,0.9,2.5,1.3,4.2,1.3c1.3,0,2.3-0.3,3-1c0.7-0.7,1.1-1.5,1.1-2.5
		c0-0.9-0.3-1.6-0.8-2.2c-0.6-0.5-1.2-0.9-2.1-1.2s-2-0.6-3.4-0.9c-1.8-0.4-3.3-0.9-4.5-1.3c-1.2-0.4-2.1-1.1-3-2.1
		c-0.8-1-1.2-2.3-1.2-4c0-2.2,0.8-4,2.4-5.3c1.6-1.4,3.9-2,6.7-2C276.7,8.5,279.1,9.3,280.9,10.8z"/>
</g>
</svg>
