<svg xmlns="http://www.w3.org/2000/svg" viewBox="0 0 463.3 134.98"><defs><style>.cls-1{fill:#2f6f7a;}.cls-2{fill:#ffc845;}.cls-3{font-size:18px;fill:#575756;font-family:Futura-Medium, Futura;font-weight:500;letter-spacing:0.05em;}.cls-4{letter-spacing:0.05em;}.cls-5{letter-spacing:0.06em;}.cls-6{letter-spacing:0.05em;}.cls-7{letter-spacing:0.05em;}.cls-8{letter-spacing:0.04em;}.cls-9{letter-spacing:0.05em;}.cls-10{letter-spacing:0.03em;}</style></defs><g id="Layer_2" data-name="Layer 2"><g id="Layer_1-2" data-name="Layer 1"><path class="cls-1" d="M77.6,30V101.9H63.31l-.72-11.66c-4.67,9.33-16,13.55-24.79,13.55-21,0-36.88-13.41-36.88-37.9,0-24,16.62-37.46,37.18-37.46,10.35,0,20,4.81,24.49,13L63,30ZM15.94,65.89c0,14.72,10.49,23.91,23.32,23.91,15.6,0,23.33-12,23.33-23.91S54.86,42.13,39.26,42.13C26.43,42.13,15.94,51.31,15.94,65.89Z"/><path class="cls-2" d="M105.43,59.48,132.11,30h19L119.28,63.85l36.25,38.05H136.19L105.43,68.66V101.9H90.27V0h15.16Z"/><polygon class="cls-2" points="170.88 8.31 170.05 8.31 151.83 8.31 139.63 21.78 158.19 21.78 170.88 8.31"/><path class="cls-1" d="M228.38,66c0,21.43-14.58,37.46-37.32,37.46-22.59,0-37-16-37-37.46,0-21,14.72-37.47,37-37.47S228.38,45.05,228.38,66Zm-59.33,0c0,12.83,8.46,23.47,22,23.47,13.85,0,22.16-10.64,22.16-23.47s-8.89-23.62-22.16-23.62C177.51,42.42,169.05,53.35,169.05,66Z"/><path class="cls-1" d="M311.26,66c0,21.43-14.58,37.46-37.32,37.46-22.59,0-37-16-37-37.46,0-21,14.72-37.47,37-37.47S311.26,45.05,311.26,66Zm-59.33,0c0,12.83,8.45,23.47,22,23.47,13.85,0,22.16-10.64,22.16-23.47s-8.89-23.62-22.16-23.62C260.38,42.42,251.93,53.35,251.93,66Z"/><path class="cls-1" d="M348.3,73.39l21.13-43.25H387.3l-39,74.42L309.46,30.14h17.86Z"/><path class="cls-1" d="M461.64,30V101.9H447.35l-.73-11.66c-4.66,9.33-16,13.55-24.78,13.55-21,0-36.88-13.41-36.88-37.9,0-24,16.62-37.46,37.17-37.46,10.35,0,20,4.81,24.49,13L447.06,30ZM400,65.89c0,14.72,10.5,23.91,23.33,23.91,15.6,0,23.32-12,23.32-23.91S438.9,42.13,423.3,42.13C410.47,42.13,400,51.31,400,65.89Z"/><text class="cls-3" transform="translate(0 129.79)">K<tspan class="cls-4" x="12.77" y="-2">-</tspan><tspan x="17.54" y="0">HO</tspan><tspan class="cls-5" x="48.52" y="0">S</tspan><tspan x="60.11" y="0">TI</tspan><tspan class="cls-6" x="75.79" y="0">N</tspan><tspan class="cls-4" x="91.98" y="0">G </tspan><tspan class="cls-7" x="114.39" y="0">F</tspan><tspan class="cls-4" x="124.4" y="0">OR SUPREME E</tspan><tspan class="cls-8" x="264.77" y="0">C</tspan><tspan class="cls-9" x="278.14" y="0">OMME</tspan><tspan class="cls-10" x="342.4" y="0">R</tspan><tspan class="cls-4" x="353.77" y="0">CE BRANDS</tspan></text></g></g></svg>