<?xml version="1.0" encoding="utf-8"?>
<svg version="1.1" id="Layer_1" xmlns="http://www.w3.org/2000/svg" xmlns:xlink="http://www.w3.org/1999/xlink" x="0px" y="0px"
	 viewBox="0 0 1920 756.7" style="enable-background:new 0 0 1920 756.7;" xml:space="preserve">
<g fill="#163255">
	<path class="st1" d="M527.8,505.3c3.8-2,8.2-3,13-3c5.5,0,10.6,1.4,15.2,4.1c4.6,2.7,8.2,6.6,10.8,11.5c2.6,4.9,3.9,10.6,3.9,16.9
		c0,6.4-1.3,12.1-3.9,17.1c-2.6,5-6.2,9-10.8,11.8c-4.6,2.8-9.6,4.2-15.2,4.2c-4.8,0-9.1-1-12.9-2.9c-3.8-2-6.8-4.4-9.2-7.3v39.4
		h-13.1v-93.7h13.1v9.3C520.9,509.8,523.9,507.3,527.8,505.3z M554.6,523.5c-1.8-3.2-4.2-5.6-7.1-7.3c-3-1.7-6.1-2.5-9.5-2.5
		c-3.3,0-6.4,0.8-9.4,2.5c-3,1.7-5.3,4.1-7.1,7.4c-1.8,3.2-2.7,7-2.7,11.4c0,4.4,0.9,8.2,2.7,11.5c1.8,3.3,4.2,5.7,7.1,7.4
		c3,1.7,6.1,2.5,9.4,2.5c3.4,0,6.5-0.9,9.5-2.6c3-1.7,5.3-4.2,7.1-7.5c1.8-3.3,2.7-7.1,2.7-11.5
		C557.3,530.5,556.4,526.7,554.6,523.5z"/>
	<path class="st1" d="M581.4,517.9c2.7-4.9,6.3-8.7,10.8-11.5c4.6-2.7,9.6-4.1,15.2-4.1c5,0,9.4,1,13.1,2.9c3.7,2,6.7,4.4,8.9,7.3
		v-9.2h13.3v63.5h-13.3v-9.5c-2.2,3-5.3,5.5-9.1,7.5c-3.8,2-8.2,3-13.1,3c-5.5,0-10.4-1.4-15-4.2c-4.5-2.8-8.1-6.7-10.8-11.8
		c-2.7-5-4-10.7-4-17.1C577.4,528.5,578.7,522.8,581.4,517.9z M626.7,523.7c-1.8-3.2-4.2-5.7-7.1-7.4c-2.9-1.7-6.1-2.5-9.5-2.5
		c-3.4,0-6.5,0.8-9.5,2.5c-2.9,1.7-5.3,4.1-7.1,7.3c-1.8,3.2-2.7,7-2.7,11.4c0,4.4,0.9,8.2,2.7,11.5c1.8,3.3,4.2,5.8,7.1,7.5
		c3,1.7,6.1,2.6,9.4,2.6c3.4,0,6.5-0.8,9.5-2.5c2.9-1.7,5.3-4.2,7.1-7.4c1.8-3.3,2.7-7.1,2.7-11.5
		C629.4,530.7,628.5,526.9,626.7,523.7z"/>
	<path class="st1" d="M714.6,503.4l-39,93.4H662l12.9-30.9l-25-62.5h14.6l17.9,48.4l18.6-48.4H714.6z"/>
	<path class="st1" d="M722.6,492.6c-1.6-1.6-2.4-3.6-2.4-6c0-2.4,0.8-4.4,2.4-6c1.6-1.6,3.6-2.4,6-2.4c2.3,0,4.3,0.8,5.9,2.4
		c1.6,1.6,2.4,3.6,2.4,6c0,2.4-0.8,4.4-2.4,6c-1.6,1.6-3.6,2.4-5.9,2.4C726.2,495,724.2,494.2,722.6,492.6z M735,503.4v63.5h-13.1
		v-63.5H735z"/>
	<path class="st1" d="M794.9,505.5c4,2.1,7,5.1,9.3,9.2c2.2,4.1,3.3,9,3.3,14.8v37.5h-13v-35.5c0-5.7-1.4-10-4.3-13.1
		c-2.8-3-6.7-4.6-11.6-4.6c-4.9,0-8.8,1.5-11.7,4.6c-2.9,3-4.3,7.4-4.3,13.1v35.5h-13.1v-63.5h13.1v7.3c2.1-2.6,4.9-4.6,8.2-6.1
		c3.3-1.5,6.9-2.2,10.7-2.2C786.5,502.3,791,503.4,794.9,505.5z"/>
	<path class="st1" d="M860.4,505.3c3.8,2,6.8,4.4,8.9,7.3v-9.2h13.3v64.5c0,5.8-1.2,11-3.7,15.6c-2.5,4.6-6,8.2-10.7,10.8
		c-4.6,2.6-10.2,3.9-16.7,3.9c-8.6,0-15.8-2-21.4-6.1c-5.7-4-8.9-9.5-9.7-16.4h13c1,3.3,3.1,6,6.4,8c3.3,2,7.2,3.1,11.7,3.1
		c5.3,0,9.6-1.6,12.8-4.8c3.3-3.2,4.9-7.9,4.9-14.1v-10.6c-2.2,3-5.2,5.5-9,7.5c-3.8,2-8.1,3.1-13,3.1c-5.5,0-10.6-1.4-15.2-4.2
		c-4.6-2.8-8.2-6.7-10.8-11.8c-2.7-5-4-10.7-4-17.1c0-6.4,1.3-12,4-16.9c2.7-4.9,6.3-8.7,10.8-11.5c4.6-2.7,9.6-4.1,15.2-4.1
		C852.2,502.3,856.6,503.3,860.4,505.3z M866.6,523.7c-1.8-3.2-4.2-5.7-7.1-7.4c-2.9-1.7-6.1-2.5-9.5-2.5c-3.4,0-6.5,0.8-9.5,2.5
		c-2.9,1.7-5.3,4.1-7.1,7.3c-1.8,3.2-2.7,7-2.7,11.4c0,4.4,0.9,8.2,2.7,11.5c1.8,3.3,4.2,5.8,7.1,7.5c3,1.7,6.1,2.6,9.4,2.6
		c3.4,0,6.5-0.8,9.5-2.5c2.9-1.7,5.3-4.2,7.1-7.4c1.8-3.3,2.7-7.1,2.7-11.5C869.3,530.7,868.4,526.9,866.6,523.7z"/>
	<path class="st1" d="M929.4,517.9c2.7-4.9,6.3-8.7,10.8-11.5c4.6-2.7,9.6-4.1,15.2-4.1c5,0,9.4,1,13.1,2.9c3.7,2,6.7,4.4,8.9,7.3
		v-9.2h13.3v63.5h-13.3v-9.5c-2.2,3-5.3,5.5-9.1,7.5c-3.8,2-8.2,3-13.1,3c-5.5,0-10.4-1.4-15-4.2c-4.5-2.8-8.1-6.7-10.8-11.8
		c-2.7-5-4-10.7-4-17.1C925.4,528.5,926.8,522.8,929.4,517.9z M974.7,523.7c-1.8-3.2-4.2-5.7-7.1-7.4c-2.9-1.7-6.1-2.5-9.5-2.5
		c-3.4,0-6.5,0.8-9.5,2.5c-2.9,1.7-5.3,4.1-7.1,7.3c-1.8,3.2-2.7,7-2.7,11.4c0,4.4,0.9,8.2,2.7,11.5c1.8,3.3,4.2,5.8,7.1,7.5
		c3,1.7,6.1,2.6,9.4,2.6c3.4,0,6.5-0.8,9.5-2.5c2.9-1.7,5.3-4.2,7.1-7.4c1.8-3.3,2.7-7.1,2.7-11.5
		C977.4,530.7,976.5,526.9,974.7,523.7z"/>
	<path class="st1" d="M1020.2,514.1v35.2c0,2.4,0.6,4.1,1.7,5.1c1.1,1,3,1.6,5.7,1.6h8.1v10.9h-10.4c-5.9,0-10.5-1.4-13.6-4.1
		c-3.2-2.8-4.7-7.3-4.7-13.5v-35.2h-7.5v-10.7h7.5v-15.8h13.3v15.8h15.4v10.7H1020.2z"/>
	<path class="st1" d="M1062.2,514.1v35.2c0,2.4,0.6,4.1,1.7,5.1c1.1,1,3,1.6,5.7,1.6h8.1v10.9h-10.4c-5.9,0-10.5-1.4-13.6-4.1
		c-3.2-2.8-4.7-7.3-4.7-13.5v-35.2h-7.5v-10.7h7.5v-15.8h13.3v15.8h15.4v10.7H1062.2z"/>
	<path class="st1" d="M1143.4,540h-48.5c0.4,5.1,2.3,9.1,5.6,12.2c3.4,3.1,7.5,4.6,12.4,4.6c7.1,0,12.1-3,15-8.9h14.2
		c-1.9,5.8-5.4,10.6-10.4,14.3c-5,3.7-11.3,5.6-18.7,5.6c-6.1,0-11.5-1.4-16.3-4.1c-4.8-2.7-8.6-6.6-11.3-11.5
		c-2.7-5-4.1-10.7-4.1-17.2c0-6.5,1.3-12.3,4-17.2c2.7-5,6.4-8.8,11.2-11.5c4.8-2.7,10.3-4,16.5-4c6,0,11.3,1.3,16,3.9
		c4.7,2.6,8.3,6.3,10.9,11c2.6,4.7,3.9,10.2,3.9,16.3C1143.9,536,1143.7,538.1,1143.4,540z M1130.2,529.4c-0.1-4.8-1.8-8.7-5.2-11.6
		c-3.4-2.9-7.6-4.4-12.6-4.4c-4.5,0-8.4,1.4-11.6,4.3c-3.2,2.9-5.1,6.8-5.8,11.7H1130.2z"/>
	<path class="st1" d="M1199.8,505.5c4,2.1,7,5.1,9.3,9.2c2.2,4.1,3.3,9,3.3,14.8v37.5h-13v-35.5c0-5.7-1.4-10-4.3-13.1
		c-2.8-3-6.7-4.6-11.6-4.6c-4.9,0-8.8,1.5-11.7,4.6c-2.9,3-4.3,7.4-4.3,13.1v35.5h-13.1v-63.5h13.1v7.3c2.1-2.6,4.9-4.6,8.2-6.1
		c3.3-1.5,6.9-2.2,10.7-2.2C1191.4,502.3,1195.9,503.4,1199.8,505.5z"/>
	<path class="st1" d="M1240.5,514.1v35.2c0,2.4,0.6,4.1,1.7,5.1c1.1,1,3,1.6,5.7,1.6h8.1v10.9h-10.4c-5.9,0-10.5-1.4-13.6-4.1
		c-3.2-2.8-4.7-7.3-4.7-13.5v-35.2h-7.5v-10.7h7.5v-15.8h13.3v15.8h15.4v10.7H1240.5z"/>
	<path class="st1" d="M1264.9,492.6c-1.6-1.6-2.4-3.6-2.4-6c0-2.4,0.8-4.4,2.4-6c1.6-1.6,3.6-2.4,6-2.4c2.3,0,4.3,0.8,5.9,2.4
		c1.6,1.6,2.4,3.6,2.4,6c0,2.4-0.8,4.4-2.4,6c-1.6,1.6-3.6,2.4-5.9,2.4C1268.5,495,1266.5,494.2,1264.9,492.6z M1277.4,503.4v63.5
		h-13.1v-63.5H1277.4z"/>
	<path class="st1" d="M1303.3,563.8c-4.8-2.7-8.6-6.6-11.4-11.5c-2.8-5-4.1-10.7-4.1-17.2c0-6.5,1.4-12.2,4.3-17.2
		c2.8-5,6.7-8.8,11.6-11.5c4.9-2.7,10.4-4,16.5-4c6.1,0,11.6,1.3,16.5,4c4.9,2.7,8.8,6.5,11.6,11.5c2.8,5,4.3,10.7,4.3,17.2
		s-1.5,12.2-4.4,17.2c-2.9,5-6.9,8.9-11.9,11.6c-5,2.7-10.6,4.1-16.7,4.1C1313.5,567.9,1308.1,566.6,1303.3,563.8z M1329,554.1
		c3-1.6,5.4-4,7.2-7.3c1.8-3.2,2.8-7.1,2.8-11.8c0-4.6-0.9-8.5-2.7-11.7c-1.8-3.2-4.1-5.6-7-7.2s-6.1-2.4-9.4-2.4
		c-3.4,0-6.5,0.8-9.4,2.4c-2.9,1.6-5.2,4-6.9,7.2c-1.7,3.2-2.5,7.1-2.5,11.7c0,6.8,1.7,12.1,5.2,15.8c3.5,3.7,7.9,5.6,13.2,5.6
		C1322.9,556.5,1326.1,555.7,1329,554.1z"/>
	<path class="st1" d="M1408.4,505.5c4,2.1,7,5.1,9.3,9.2c2.2,4.1,3.3,9,3.3,14.8v37.5h-13v-35.5c0-5.7-1.4-10-4.3-13.1
		c-2.8-3-6.7-4.6-11.6-4.6c-4.9,0-8.8,1.5-11.7,4.6c-2.9,3-4.3,7.4-4.3,13.1v35.5H1363v-63.5h13.1v7.3c2.1-2.6,4.9-4.6,8.2-6.1
		c3.3-1.5,6.9-2.2,10.7-2.2C1400,502.3,1404.5,503.4,1408.4,505.5z"/>
</g>
<g fill="#163255">
	<path class="st1" d="M310.4,281.1c15.5,2,32.9,17.2,32.9,43.9c0,30.7-18.9,52.4-60.8,52.4H192c-1.5,0-2.7-1.2-2.7-2.7V191.4
		c0-1.5,1.2-2.7,2.7-2.7h90.2c34.1,0,55.7,20.8,55.7,52.4c0,23.9-16.3,36.9-27.6,38.8V281.1z M227.6,264.9c0,1.5,1.2,2.7,2.7,2.7
		h45.2c15.2,0,25.3-9.6,25.3-24.2c0-13.2-10.4-22-22.8-22h-47.7c-1.5,0-2.7,1.2-2.7,2.7V264.9z M278.3,344.7
		c17.2,0,25.9-9.3,25.9-23.5c0-12.9-10.9-23.3-23.9-23.3h-50c-1.5,0-2.7,1.2-2.7,2.7V342c0,1.5,1.2,2.7,2.7,2.7H278.3z"/>
	<path class="st1" d="M529.2,292.9c0,52.9-32.4,88.7-81.1,88.7c-49.8,0-83-35.8-83-88.7V191.4c0-1.5,1.2-2.7,2.7-2.7h32.9
		c1.5,0,2.7,1.2,2.7,2.7v101.5c0,31.5,17.7,52.1,44.8,52.1c25.6,0,42.8-20.5,42.8-52.1V191.4c0-1.5,1.2-2.7,2.7-2.7h32.9
		c1.5,0,2.7,1.2,2.7,2.7V292.9z"/>
	<path class="st1" d="M970.9,190.4l15,36.9c0.4,1,1.4,1.7,2.5,1.7h79.7c1.1,0,2.1-0.7,2.5-1.7l15.2-37c0.4-1,1.4-1.7,2.5-1.7h35.5
		c1.9,0,3.2,2,2.5,3.7l-79.3,183.3c-0.4,1-1.4,1.6-2.4,1.6h-32.2c-1.1,0-2-0.6-2.5-1.6l-79.3-183.3c-0.8-1.8,0.5-3.7,2.5-3.7h35.5
		C969.5,188.8,970.5,189.4,970.9,190.4z M1030.7,324.9l23.6-57.5c0.7-1.8-0.6-3.7-2.5-3.7h-46.9c-1.9,0-3.2,1.9-2.5,3.7l23.4,57.5
		C1026.6,327.1,1029.8,327.1,1030.7,324.9z"/>
	<path class="st1" d="M1255.4,376.4l-54.7-68.2h-20v66.6c0,1.5-1.2,2.7-2.7,2.7H1145c-1.5,0-2.7-1.2-2.7-2.7V191.4
		c0-1.5,1.2-2.7,2.7-2.7h87.7c40.5,0,67.6,23.9,67.6,59.7c0,31.5-21.1,54-54,58.8l53.1,65.7c1.4,1.7,0.2,4.3-2.1,4.3h-39.9
		C1256.6,377.4,1255.9,377,1255.4,376.4z M1232.7,273.5c17.7,0,29.6-10.1,29.6-25.1c0-14.9-11.8-25.1-29.6-25.1h-49.4
		c-1.5,0-2.7,1.2-2.7,2.7v44.8c0,1.5,1.2,2.7,2.7,2.7H1232.7z"/>
	<path class="st1" d="M1514.8,283.3c0,54.9-43.6,98.2-99.4,98.2s-99.4-43.4-99.4-98.2s43.6-98.8,99.4-98.8
		S1514.8,228.4,1514.8,283.3z M1476.3,283.3c0-36-26.7-62.8-60.8-62.8s-60.8,26.7-60.8,62.8s26.7,62.2,60.8,62.2
		S1476.3,319.4,1476.3,283.3z"/>
	<path class="st1" d="M1731.3,283.3c0,54.9-43.6,98.2-99.4,98.2s-99.4-43.4-99.4-98.2s43.6-98.8,99.4-98.8
		S1731.3,228.4,1731.3,283.3z M1692.7,283.3c0-36-26.7-62.8-60.8-62.8s-60.8,26.7-60.8,62.8s26.7,62.2,60.8,62.2
		S1692.7,319.4,1692.7,283.3z"/>
	<path class="st1" d="M701.9,314.5c-1,0-1.9,0.6-2.4,1.5c-10.2,20.6-28.8,29.8-49.8,29.8c-33.8,0-60.5-27-60.5-62.8
		s26.7-62.5,60.5-62.5c20.9,0,39.5,9.2,49.7,29.6c0.5,0.9,1.4,1.5,2.4,1.5h35.9c1.8,0,3.1-1.8,2.6-3.5
		c-12.4-39.9-48.3-63.6-90.5-63.6c-55.5,0-99.1,43.4-99.1,98.5c0,55.5,43.6,98.5,99.1,98.5c41.5,0,77.1-22.6,89.9-63.6
		c0.5-1.7-0.7-3.5-2.5-3.5H701.9z"/>
	<path class="st1" d="M893.8,377.4H933c2.2,0,3.5-2.6,2.1-4.3l-84.8-104.9l67.7-74.9c1.6-1.7,0.3-4.5-2-4.5h-40.9
		c-0.8,0-1.5,0.3-2,0.9l-67.5,75.1v-73.3c0-1.5-1.2-2.7-2.7-2.7H770c-1.5,0-2.7,1.2-2.7,2.7v183.3c0,1.5,1.2,2.7,2.7,2.7H803
		c1.5,0,2.7-1.2,2.7-2.7v-57.2L826,295l65.7,81.3C892.2,377,893,377.4,893.8,377.4z"/>
</g>
</svg>
