<?xml version="1.0" encoding="UTF-8"?>
<!DOCTYPE svg PUBLIC "-//W3C//DTD SVG 1.1//EN" "http://www.w3.org/Graphics/SVG/1.1/DTD/svg11.dtd">
<svg xmlns="http://www.w3.org/2000/svg" version="1.1" viewBox="0 0 356 539" style="shape-rendering:geometricPrecision; text-rendering:geometricPrecision; image-rendering:optimizeQuality; fill-rule:evenodd; clip-rule:evenodd" xmlns:xlink="http://www.w3.org/1999/xlink">
<g><path style="opacity:0.979" fill="#91a8b3" d="M 178.5,-0.5 C 186.833,-0.5 195.167,-0.5 203.5,-0.5C 209.088,0.573642 214.421,2.57364 219.5,5.5C 215.204,6.32752 210.871,6.82752 206.5,7C 232.216,9.60902 254.049,20.109 272,38.5C 279.084,48.2551 286.917,57.4217 295.5,66C 309.459,75.6564 324.792,78.9897 341.5,76C 344.071,75.0991 346.404,73.7658 348.5,72C 349.5,71.3333 350.5,71.3333 351.5,72C 342.078,87.2585 328.411,95.0918 310.5,95.5C 313.094,104.787 315.594,114.12 318,123.5C 319.408,130.43 320.241,137.43 320.5,144.5C 317.784,166.107 315.618,187.774 314,209.5C 313.674,214.146 312.34,218.479 310,222.5C 298.72,230.052 292.886,240.719 292.5,254.5C 290.097,254.607 288.264,253.607 287,251.5C 285.063,247.354 283.729,243.021 283,238.5C 282.206,224.448 282.706,210.448 284.5,196.5C 283.283,169.994 273.616,147.161 255.5,128C 240.409,116.859 224.409,115.526 207.5,124C 198.833,128.333 190.167,132.667 181.5,137C 176.572,138.418 171.572,138.751 166.5,138C 156.187,132.366 145.853,126.7 135.5,121C 102.815,107.281 78.6487,116.115 63,147.5C 58.7101,159.451 56.5434,171.784 56.5,184.5C 58.2769,203.468 58.7769,222.468 58,241.5C 57.6047,245.019 56.6047,248.352 55,251.5C 53.6439,252.38 52.1439,252.714 50.5,252.5C 50.2833,241.341 46.45,231.674 39,223.5C 5.53999,155.061 17.3733,95.8945 74.5,46C 94.0516,30.3911 115.718,18.7244 139.5,11C 138.5,12 137.5,13 136.5,14C 150.01,7.88513 164.01,3.0518 178.5,-0.5 Z"/></g>
<g><path style="opacity:0.921" fill="#a2a598" d="M 178.5,172.5 C 184.176,172.334 189.843,172.501 195.5,173C 195.957,173.414 196.291,173.914 196.5,174.5C 186.26,201.722 175.927,228.889 165.5,256C 159.472,256.83 153.472,256.664 147.5,255.5C 158.037,227.887 168.37,200.22 178.5,172.5 Z"/></g>
<g><path style="opacity:0.92" fill="#91a8b3" d="M 140.5,180.5 C 141.117,180.611 141.617,180.944 142,181.5C 142.667,187.167 142.667,192.833 142,198.5C 131.913,204.127 121.746,209.627 111.5,215C 121.347,220.09 131.347,224.923 141.5,229.5C 142.496,235.463 142.829,241.463 142.5,247.5C 124.186,239.845 106.186,231.345 88.5,222C 87.1667,218 87.1667,214 88.5,210C 106.058,200.392 123.392,190.559 140.5,180.5 Z"/></g>
<g><path style="opacity:0.919" fill="#91a8b3" d="M 202.5,180.5 C 220.139,190.321 237.806,200.155 255.5,210C 256.833,214 256.833,218 255.5,222C 237.814,231.345 219.814,239.845 201.5,247.5C 201.171,241.463 201.504,235.463 202.5,229.5C 212.653,224.923 222.653,220.09 232.5,215C 222.254,209.627 212.087,204.127 202,198.5C 201.212,192.418 201.379,186.418 202.5,180.5 Z"/></g>
<g><path style="opacity:0.981" fill="#a2a598" d="M 41.5,253.5 C 43.4672,253.261 45.3005,253.594 47,254.5C 50.2599,272.679 56.5932,289.679 66,305.5C 72.4288,315.263 80.7621,322.93 91,328.5C 109.181,312.912 130.181,303.246 154,299.5C 160.717,301.387 167.55,302.72 174.5,303.5C 181.896,302.484 189.229,301.151 196.5,299.5C 218.514,302.677 237.848,311.51 254.5,326C 255.5,326.667 256.5,326.667 257.5,326C 271.642,315.575 281.808,302.075 288,285.5C 291.409,275.019 294.576,264.519 297.5,254C 300.528,252.86 302.695,253.694 304,256.5C 305.522,280.813 305.855,305.146 305,329.5C 303.934,344.293 301.934,358.96 299,373.5C 298.333,383.167 298.333,392.833 299,402.5C 299.884,410.82 302.551,418.487 307,425.5C 310.834,429.993 315.667,432.826 321.5,434C 310.712,434.443 300.379,432.443 290.5,428C 287.705,426.207 285.205,424.04 283,421.5C 281.413,431.827 285.246,439.327 294.5,444C 287.633,443.544 281.3,441.377 275.5,437.5C 264.24,453.927 250.74,468.261 235,480.5C 232.234,488.605 234.067,495.438 240.5,501C 231.767,500.267 225.933,495.767 223,487.5C 191.116,507.62 158.616,508.62 125.5,490.5C 121.074,496.771 115.074,500.271 107.5,501C 113.761,496.72 115.761,490.887 113.5,483.5C 98.733,474.234 86.3996,462.4 76.5,448C 75.8333,447.333 75.1667,447.333 74.5,448C 67.5033,454.883 59.17,458.883 49.5,460C 58.8092,454.378 62.8092,446.044 61.5,435C 61.5581,430.747 61.0581,426.58 60,422.5C 49.1033,431.352 36.6033,435.185 22.5,434C 32.5407,431.627 39.0407,425.461 42,415.5C 45.3274,401.69 46.3274,387.69 45,373.5C 37.6477,334.415 35.981,295.082 40,255.5C 40.7172,254.956 41.2172,254.289 41.5,253.5 Z M 170.5,329.5 C 187.863,331.343 204.196,336.509 219.5,345C 199.4,353.967 178.4,356.967 156.5,354C 146.702,352.956 137.369,350.29 128.5,346C 141.769,338.415 155.769,332.915 170.5,329.5 Z"/></g>
</svg>
