<?xml version="1.0" encoding="utf-8"?>
<!-- Generator: Adobe Illustrator 27.2.0, SVG Export Plug-In . SVG Version: 6.00 Build 0)  -->
<svg version="1.1" id="Laag_1" xmlns="http://www.w3.org/2000/svg" xmlns:xlink="http://www.w3.org/1999/xlink" x="0px" y="0px"
	 viewBox="0 0 425.6 111" style="enable-background:new 0 0 425.6 111;" xml:space="preserve">
<style type="text/css">
	.st0{enable-background:new    ;}
	.st1{fill:#343434;}
	.st2{fill:#FC934C;}
	.st3{fill:#3BFEDC;}
	.st4{fill:#956BFF;}
	.st5{fill:#00DCC4;}
	.st6{fill:none;}
</style>
<g id="Elovate_00000085962639956446579940000001518516157732237955_">
	<g class="st0">
		<path class="st1" d="M139,23.9h33.3v11.7H152V50h17.4v11.6H152V77h21.1v11.6H139V23.9z"/>
		<path class="st1" d="M182.3,21.8H195v66.8h-12.8V21.8z"/>
		<path class="st1" d="M228.4,39c14.8,0,26.1,10.9,26.1,25.5s-10.9,25.2-26.1,25.2c-15.1,0-26-10.6-26-25.2
			C202.4,49.9,213.7,39,228.4,39z M228.4,78.5c7.7,0,13.3-5.7,13.3-14c0-8.2-5.6-14.2-13.3-14.2c-7.7,0-13.2,5.9-13.2,14.2
			C215.2,72.8,220.8,78.5,228.4,78.5z"/>
		<path class="st1" d="M269.7,88.6l-17.3-48.3H266L277.1,75l11.1-34.8h13.6l-17.3,48.3H269.7z"/>
		<path class="st1" d="M320.7,57.6c4.9,0,8.7,1.5,10.4,2.7v-3.1c0-4.3-3.1-7.1-8.8-7.1c-4.8,0-9.2,1.6-12.8,3.4l-4.8-8.7
			c4.3-3,11.6-5.7,19-5.7c15.5,0,20.2,8.1,20.2,18.9v30.6h-11.3l-0.8-3.1c-2.5,2.7-6.2,4.3-11.7,4.3c-9.8,0-18.1-6-18.1-16.2
			C301.9,64.1,309.4,57.6,320.7,57.6z M323.1,79.9c4.8,0,8.3-2.6,8.3-6.7c0-4.3-3.5-6.7-8.4-6.7s-8.3,2.8-8.3,6.7
			C314.6,77.2,318.3,79.9,323.1,79.9z"/>
		<path class="st1" d="M352.3,30.1h12.6v10.2h9.1v10.4h-9.1v18.7c0,7.2,2.2,8.7,7.1,8.7c0.8,0,1.3,0,2.3-0.1v10.9
			c0,0-1.9,0.5-5.5,0.5c-11.6,0-16.6-6.5-16.6-19.6v-19h-5.1V40.3h5.2V30.1z"/>
		<path class="st1" d="M402.2,39c15,0,23.5,10,23.5,25.8c0,0.9,0,1.8-0.1,2.8h-34c0.3,6.5,5.5,11.1,12.6,11.1
			c6.6,0,10.4-3.9,11.7-5.9l8.4,6.4c-1.8,3.4-8.3,10.6-20.3,10.6c-15.5,0-25.4-10.7-25.4-25.2C378.5,50,388.4,39,402.2,39z
			 M412.7,59.3c-0.3-5.9-4.5-9.8-10.4-9.8c-6,0-9.9,4.3-10.4,9.8H412.7z"/>
	</g>
</g>
<path id="Path_775_00000170260028088739140310000003403885574291746432_" class="st2" d="M38.6,96.5v-1.1
	C38.5,95.8,38.5,96.2,38.6,96.5"/>
<path id="Path_776_00000012465203563814211710000015228708668036614574_" class="st3" d="M56.7,59.6c3.6-4,7.6-7.6,11.9-10.8l0-31.5
	c-0.1,0.6-0.2,1.1-0.3,1.7C65.1,31,59.1,42.1,50.7,51.4c-3.6,4.1-7.7,7.7-12.1,11l0,33c0-1.1,0.2-2.2,0.5-3.3
	C42.3,80,48.3,68.9,56.7,59.6"/>
<path id="Path_777_00000113317946512378611220000003418568282834700685_" class="st4" d="M68.2,99.8c4.1-15.1,15.1-27.3,29.6-33
	c7.8-3,11.6-11.7,8.6-19.5c-3-7.7-11.6-11.6-19.4-8.7c-6.5,2.5-12.7,5.9-18.3,10.1l0,46.4"/>
<path id="Path_778_00000003083050821484737460000013361319325722508476_" class="st2" d="M38.6,96.5v-1.1
	C38.5,95.8,38.5,96.2,38.6,96.5"/>
<path id="Path_779_00000083773878706992665250000003889822158941119925_" class="st4" d="M38.8,12.4c-2.1,7-5.7,13.4-10.6,18.9
	C23.2,37,16.8,41.4,9.7,44.2C1.9,47.2-2,55.9,1,63.7c3,7.7,11.6,11.6,19.4,8.7c6.5-2.5,12.6-5.8,18.2-10l0-46.5
	C38.6,14.7,38.6,13.6,38.8,12.4"/>
<path id="Path_780_00000110466135445136145930000014135459216761621154_" class="st5" d="M68.6,95.2l0-46.4
	c-4.3,3.2-8.3,6.8-11.9,10.8C48.3,68.9,42.3,80,39.1,92.1c-0.3,1.1-0.5,2.2-0.5,3.3v1.1c0.1,3.7,1.6,7.3,4.2,9.9l0.1,0.1
	c0.1,0.1,0.3,0.3,0.4,0.4c0.1,0.1,0.1,0.1,0.2,0.2c0.1,0.1,0.2,0.2,0.3,0.3c0.1,0.1,0.2,0.2,0.3,0.3l0.1,0.1c2.3,1.8,5,2.9,7.9,3.2
	l0.1,0c0.2,0,0.4,0,0.5,0c0.2,0,0.4,0,0.6,0c0.4,0,0.8,0,1.2,0h0.1c0.8,0,1.5-0.1,2.3-0.3c0.2,0,0.3-0.1,0.5-0.1
	c0.2-0.1,0.5-0.1,0.7-0.2c0.3-0.1,0.5-0.2,0.8-0.3l0.3-0.1c0.3-0.1,0.7-0.3,1-0.4l0.1,0c0.4-0.2,0.7-0.4,1.1-0.6l0,0
	c1.4-0.9,2.7-1.9,3.8-3.2c0.1-0.1,0.1-0.1,0.2-0.2c0.2-0.2,0.4-0.5,0.6-0.8c0.1-0.1,0.2-0.3,0.3-0.4c0.1-0.1,0.1-0.2,0.2-0.3
	C68,101.4,68.8,98.3,68.6,95.2"/>
<path id="Path_774_00000057851002547316916780000002073179061404501654_" class="st5" d="M50.7,51.4c8.4-9.3,14.5-20.5,17.7-32.6
	c0.1-0.6,0.3-1.1,0.3-1.7v-2.9c-0.2-3.7-1.8-7.3-4.4-9.9c0,0-0.1-0.1-0.1-0.1C64,4.2,63.9,4,63.8,3.9c-1.2-1.1-2.5-2-4-2.6l-0.1,0
	c-0.2-0.1-0.4-0.2-0.6-0.2C59,1,59,1,58.9,0.9c-0.1,0-0.3-0.1-0.4-0.1C53-1.1,46.9,0.4,42.8,4.6c-1.7,1.9-3,4.1-3.6,6.6
	c-0.1,0.4-0.2,0.8-0.3,1.2c-0.2,1.1-0.3,2.3-0.2,3.4l0,46.5C43,59.1,47,55.5,50.7,51.4"/>
<rect id="Rectangle_277_00000095331052418656604730000013062480764661252540_" class="st6" width="107.4" height="111"/>
</svg>
