<svg version="1.1" xmlns="http://www.w3.org/2000/svg" viewBox="74.83 56.45 145.3 252.1">
	<g style="stroke: none; stroke-width: 0; stroke-dasharray: none; stroke-linecap: butt; stroke-linejoin: miter; stroke-miterlimit: 10; fill: none; fill-rule: nonzero; opacity: 1;" transform="matrix(2.81, 0, 0, 2.81, 17.736958, 0.821541)">
		<path d="M 45.848 19.798 L 39.36 19.798 C 27.86 22.369 20.478 25.095 20.478 37.37 L 20.357 74.475 C 27.565 75.822 32.495 81.815 35.46 90 L 39.077 90 C 39.801 82.384 39.29 70.283 37.421 62.902 C 32.682 59.641 29.552 54.193 27.631 47.101 L 42.219 52.322 L 43.05 58.513 L 45 58.513 C 48.126 46.35 48.65 33.368 45.848 19.798 Z" style="stroke: none; stroke-width: 1; stroke-dasharray: none; stroke-linecap: butt; stroke-linejoin: miter; stroke-miterlimit: 10; fill: rgb(80,100,110); fill-rule: nonzero; opacity: 1;" stroke-linecap="round">
		</path>
		<path d="M 45.712 19.798 L 51.352 19.798 C 62.852 22.369 70.845 25.502 70.845 37.777 L 71.446 74.475 C 64.238 75.822 58.217 81.815 55.252 90 L 51.635 90 C 50.911 82.384 51.422 70.283 53.291 62.902 C 58.03 59.641 61.16 54.193 63.081 47.101 L 48.493 52.322 L 47.662 58.513 L 45.712 58.513 L 45.712 19.798 Z" style="stroke: none; stroke-width: 1; stroke-dasharray: none; stroke-linecap: butt; stroke-linejoin: miter; stroke-miterlimit: 10; fill: rgb(55,71,79); fill-rule: nonzero; opacity: 1;" stroke-linecap="round">
		</path>
		<path fill="#F30" d="M 55.872 109.471 L 55.712 109.378 L 55.55 109.471 L 55.872 109.471 Z M 63.682 43.437 L 54.216 27.974 L 45.541 22.972 L 36.868 27.974 L 27.418 33.424 L 20.436 37.266 L 20.318 74.968 L 27.418 81.909 L 27.418 43.427 L 41.213 48.541 L 41.213 86.808 L 45.67 89.378 L 49.887 86.947 L 49.737 48.4 L 63.682 43.437 Z Z Z">
		</path>
		<path d="M 55.785 109.513 L 55.625 109.42 L 55.463 109.513 L 55.785 109.513 Z M 63.595 33.474 L 54.129 28.016 L 45.454 23.014 L 45.717 23.149 L 45.609 35.394 L 45.583 89.42 L 49.8 86.989 L 49.8 35.524 L 63.595 43.479 L 63.595 82.091 L 72.027 77.089 L 70.796 37.829 L 63.595 33.474 Z Z Z" style="fill: rgb(166, 33, 0);">
		</path>
	</g>
</svg>
