<svg xmlns="http://www.w3.org/2000/svg" xmlns:xlink="http://www.w3.org/1999/xlink" width="700" zoomAndPan="magnify" viewBox="0 0 525 374.999991" height="500" preserveAspectRatio="xMidYMid meet" version="1.0"><defs><g/></defs><rect x="-52.5" width="630" fill="#ffffff" y="-37.499999" height="449.999989" fill-opacity="1"/><rect x="-52.5" width="630" fill="#ffffff" y="-37.499999" height="449.999989" fill-opacity="1"/><g fill="#000000" fill-opacity="1"><g transform="translate(130.53781, 209.884981)"><g><path d="M 3.640625 -44.796875 L 18.75 -44.796875 L 18.75 -11.71875 L 38.96875 -11.71875 L 38.96875 0 L 3.640625 0 Z M 3.640625 -44.796875 "/></g></g></g><g fill="#000000" fill-opacity="1"><g transform="translate(172.583389, 209.884981)"><g><path d="M 3.640625 -44.796875 L 18.75 -44.796875 L 18.75 0 L 3.640625 0 Z M 3.640625 -44.796875 "/></g></g></g><g fill="#000000" fill-opacity="1"><g transform="translate(197.542013, 209.884981)"><g><path d="M 47.8125 -44.796875 L 47.8125 0 L 35.390625 0 L 18.375 -20.359375 L 18.375 0 L 3.640625 0 L 3.640625 -44.796875 L 16.0625 -44.796875 L 33.09375 -24.453125 L 33.09375 -44.796875 Z M 47.8125 -44.796875 "/></g></g></g><g fill="#000000" fill-opacity="1"><g transform="translate(251.55485, 209.884981)"><g><path d="M 13.375 -33.09375 L 0.25 -33.09375 L 0.25 -44.796875 L 41.59375 -44.796875 L 41.59375 -33.09375 L 28.484375 -33.09375 L 28.484375 0 L 13.375 0 Z M 13.375 -33.09375 "/></g></g></g><g fill="#000000" fill-opacity="1"><g transform="translate(295.96828, 209.884981)"><g><path d="M 40.890625 -11.390625 L 40.890625 0 L 3.640625 0 L 3.640625 -44.796875 L 40.0625 -44.796875 L 40.0625 -33.40625 L 18.5 -33.40625 L 18.5 -28.15625 L 37.4375 -28.15625 L 37.4375 -17.28125 L 18.5 -17.28125 L 18.5 -11.390625 Z M 40.890625 -11.390625 "/></g></g></g><g fill="#000000" fill-opacity="1"><g transform="translate(341.597634, 209.884981)"><g><path d="M 3.640625 -44.796875 L 25.734375 -44.796875 C 30.722656 -44.796875 35.125 -43.890625 38.9375 -42.078125 C 42.757812 -40.265625 45.726562 -37.671875 47.84375 -34.296875 C 49.957031 -30.929688 51.015625 -26.96875 51.015625 -22.40625 C 51.015625 -17.832031 49.957031 -13.859375 47.84375 -10.484375 C 45.726562 -7.117188 42.757812 -4.53125 38.9375 -2.71875 C 35.125 -0.90625 30.722656 0 25.734375 0 L 3.640625 0 Z M 25.09375 -11.78125 C 28.332031 -11.78125 30.921875 -12.707031 32.859375 -14.5625 C 34.804688 -16.414062 35.78125 -19.03125 35.78125 -22.40625 C 35.78125 -25.769531 34.804688 -28.378906 32.859375 -30.234375 C 30.921875 -32.097656 28.332031 -33.03125 25.09375 -33.03125 L 18.75 -33.03125 L 18.75 -11.78125 Z M 25.09375 -11.78125 "/></g></g></g></svg>