<svg id="Слой_1" data-name="Слой 1" xmlns="http://www.w3.org/2000/svg" xmlns:xlink="http://www.w3.org/1999/xlink" viewBox="0 0 871.47 695.19">
    <defs>
        <style>.cls-2{fill:#2d385f;}</style>
        <clipPath id="clip-path" transform="translate(-67.81 -81.75)"/>
    </defs>
    <title>Magefan</title>
    <path id="path26" class="cls-2" d="M669,184.27c-1.85-87.2-93.39-157.81-117.2-41.7,50.86-18.35,90,17.15,90,17.15" transform="translate(-67.81 -81.75)"/>
    <path id="path30" class="cls-2" d="M605.89,243.57a18.68,18.68,0,1,0-23.7-11.66,18.66,18.66,0,0,0,23.7,11.66M232.53,391s-37.76-100.53,77.1-154.34c64.73-22.63,85.42,8.39,142-33.48,48.47-40.64,70.84-34.71,70.84-34.71-42.31,35.38-23,131.63,22.75,121.23-29.54-1.36-65.63-121.16,38.9-146.54C640.45,131.59,695.21,189.27,680,257c-5.41,28.06-8,90,52.91,92.59,45.23.17,49.23-31.56,49.23-31.56s14.67-2.67,15.92,10.15c4.25,7.9,7.32,14.65-1.73,22.4s-104.87,81-175-7.31c-21.78-35.49-96.8-24-84.24,42.22,19.7,58.35,25,74,25,74s22.23,47-27.5,69.38C501,541,478.21,513.23,473.11,498.2s-32.6-94.9-32.6-94.9-16.58-38.61-62.36-23.52C358.58,386.46,341.54,411,352.74,444l28.89,85.25s13.7,42.61-27.9,60.88c-34.33,12.16-56.49-9.91-62.74-27.51S232.53,391,232.53,391" transform="translate(-67.81 -81.75)"/>
    <path id="path34" class="cls-2" d="M573.83,237.87a16.71,16.71,0,1,0,10.43-21.21,16.72,16.72,0,0,0-10.43,21.21" transform="translate(-67.81 -81.75)"/>
    <path class="cls-2" d="M125.57,775.11,86.82,663.52h-.73q1.55,24.86,1.55,46.61v65H67.81V641.5h30.8l37.1,106.28h.55l38.2-106.28h30.89V775.11h-21V709q0-10,.5-25.95t.87-19.37H185l-40.12,111.4Z" transform="translate(-67.81 -81.75)"/>
    <path class="cls-2" d="M323.42,775.11,310.08,738H259l-13.07,37.11h-23l50-134.16h23.76l50,134.16Zm-19.1-55.93L291.8,682.8q-1.37-3.64-3.79-11.51t-3.34-11.51a204,204,0,0,1-7.22,24.58l-12.06,34.82Z" transform="translate(-67.81 -81.75)"/>
    <path class="cls-2" d="M418.92,702.64h49.17v67.07a142.94,142.94,0,0,1-23.17,5.58,163.55,163.55,0,0,1-24,1.64q-30.35,0-46.79-17.95T357.69,708.3q0-32.25,18.55-50.49t51.09-18.23a99.51,99.51,0,0,1,39.66,8l-7.68,18.19a77.11,77.11,0,0,0-32.53-7.5q-21.39,0-33.81,13.44t-12.43,36.73q0,24.49,11.19,37.25T424,758.47a105.67,105.67,0,0,0,22.66-2.65V721.37H418.92Z" transform="translate(-67.81 -81.75)"/><path class="cls-2" d="M575.74,775.11H500.16V641.5h75.58V660H522v36.37h50.35v18.28H522v41.94h53.73Z" transform="translate(-67.81 -81.75)"/>
    <path class="cls-2" d="M626.28,775.11H604.62V641.5H680V660H626.28v41.76h50.35v18.55H626.28Z" transform="translate(-67.81 -81.75)"/>
    <path class="cls-2" d="M787.12,775.11,773.78,738H722.69l-13.07,37.11h-23l50-134.16h23.76l50,134.16ZM768,719.18,755.5,682.8q-1.37-3.64-3.79-11.51t-3.34-11.51a204,204,0,0,1-7.22,24.58l-12.06,34.82Z" transform="translate(-67.81 -81.75)"/>
    <path class="cls-2" d="M939.28,775.11H912.51L846.8,668.64h-.73l.45,5.94q1.29,17,1.28,31.07v69.46H828V641.5h26.5L920,747.42h.55q-.19-2.1-.73-15.31t-.55-20.61v-70h20Z" transform="translate(-67.81 -81.75)"/>
</svg>